<svg xmlns="http://www.w3.org/2000/svg" xmlns:xlink="http://www.w3.org/1999/xlink" xmlns:lucid="lucid" width="1760" height="1200"><g transform="translate(-40 -20)" lucid:page-tab-id="0_0"><path d="M980 946a6 6 0 0 1 6-6h788a6 6 0 0 1 6 6v248a6 6 0 0 1-6 6H986a6 6 0 0 1-6-6z" fill-opacity="0"/><path d="M1025.52 940.07h40.46m20.23 0h40.47m20.22 0l40.45-.02m20.23 0h40.46m20.23 0h40.46m20.23 0h40.46m20.23 0l40.45-.02m20.23 0h40.46m20.22 0h40.46m20.23 0h40.47m20.23-.02h40.45m20.23 0h40.46m20.23 0H1774l.94.07.9.22.88.35.8.5.72.6.6.72.5.8.37.88.23.9v20.76m0 20.75l.02 41.5m0 20.74l.02 41.48m0 20.74l.02 41.5m0 20.74V1194l-.07.94-.22.9-.35.88-.5.8-.6.72-.72.6-.8.5-.88.37-.9.23h-20.24m-20.22 0h-40.46m-20.23 0h-40.47m-20.22 0l-40.45.02m-20.23 0h-40.46m-20.23 0h-40.46m-20.23 0h-40.46m-20.23 0l-40.45.02m-20.23 0h-40.46m-20.22 0h-40.46m-20.23 0h-40.47m-20.23.02h-40.45m-20.23 0h-40.46m-20.23 0H986l-.94-.07-.9-.22-.88-.35-.8-.5-.72-.6-.6-.72-.5-.8-.37-.88-.23-.9v-20.76m0-20.75l-.02-41.5m0-20.74l-.02-41.48m0-20.74l-.02-41.5m0-20.74V946l.07-.94.22-.9.35-.88.5-.8.6-.72.72-.6.8-.5.88-.37.9-.23h20.24" stroke="#3a414a" stroke-width="2" fill="none"/><path d="M980 46a6 6 0 0 1 6-6h508a6 6 0 0 1 6 6v848a6 6 0 0 1-6 6H986a6 6 0 0 1-6-6z" fill-opacity="0"/><path d="M1027.47 40.07h42.4m21.22 0l42.4-.02m21.2 0h42.42m21.2 0l42.42-.02m21.2 0h42.4m21.22 0h42.4m21.22-.02h42.4m21.2 0H1494l.94.07.9.22.88.35.8.5.72.6.6.72.5.8.37.88.23.9v20.22m0 20.22v40.4m0 20.23v40.42m0 20.2v40.44m.02 20.2v40.43m0 20.2v40.44m0 20.2v40.44m0 20.22v40.42m.02 20.22v40.42m0 20.2v40.44m0 20.2v40.44m0 20.2l.02 40.44m0 20.2v40.44m0 20.2v40.43m0 20.22V894l-.07.94-.22.9-.35.88-.5.8-.6.72-.72.6-.8.5-.88.37-.9.23h-21.22m-21.2 0h-42.4m-21.22 0l-42.4.02m-21.2 0h-42.42m-21.2 0l-42.42.02m-21.2 0h-42.4m-21.22 0h-42.4m-21.22.02h-42.4m-21.2 0H986l-.94-.07-.9-.22-.88-.35-.8-.5-.72-.6-.6-.72-.5-.8-.37-.88-.23-.9v-20.22m0-20.22v-40.4m0-20.23v-40.42m0-20.2V692.8m-.02-20.2v-40.43m0-20.2v-40.44m0-20.2v-40.44m0-20.22v-40.42m-.02-20.22v-40.42m0-20.2v-40.44m0-20.2v-40.44m0-20.2L980 207.7m0-20.2v-40.44m0-20.2V86.42m0-20.22V46l.07-.94.22-.9.35-.88.5-.8.6-.72.72-.6.8-.5.88-.37.9-.23h21.22" stroke="#3a414a" stroke-width="2" fill="none"/><path d="M60 666a6 6 0 0 1 6-6h788a6 6 0 0 1 6 6v528a6 6 0 0 1-6 6H66a6 6 0 0 1-6-6z" fill-opacity="0"/><path d="M105.52 660.07h40.46m20.23 0h40.47m20.22 0l40.45-.02m20.23 0h40.46m20.23 0h40.46m20.23 0h40.46m20.23 0l40.45-.02m20.23 0h40.46m20.22 0h40.46m20.23 0h40.47m20.23-.02h40.45m20.23 0h40.46m20.23 0H854l.94.07.9.22.88.35.8.5.72.6.6.72.5.8.37.88.23.9v19.6m0 19.6v39.17m0 19.6l.02 39.17m0 19.58v39.18m0 19.6v39.18m0 19.6l.02 39.17m0 19.6v39.18m0 19.6l.02 39.17m0 19.6v39.17m0 19.6V1194l-.07.94-.22.9-.35.88-.5.8-.6.72-.72.6-.8.5-.88.37-.9.23H834.7m-20.22 0h-40.46m-20.23 0h-40.47m-20.22 0l-40.45.02m-20.23 0h-40.46m-20.23 0h-40.46m-20.23 0h-40.46m-20.23 0l-40.45.02m-20.23 0H349.2m-20.22 0h-40.46m-20.23 0h-40.47m-20.23.02h-40.45m-20.23 0h-40.46m-20.23 0H66l-.94-.07-.9-.22-.88-.35-.8-.5-.72-.6-.6-.72-.5-.8-.37-.88-.23-.9v-19.6m0-19.6v-39.17m0-19.6l-.02-39.17m0-19.58v-39.18m0-19.6v-39.18m0-19.6l-.02-39.17m0-19.6v-39.18m0-19.6L60 763.96m0-19.6V705.2m0-19.6V666l.07-.94.22-.9.35-.88.5-.8.6-.72.72-.6.8-.5.88-.37.9-.23H85.3" stroke="#3a414a" stroke-width="2" fill="none"/><path d="M60 46a6 6 0 0 1 6-6h788a6 6 0 0 1 6 6v528a6 6 0 0 1-6 6H66a6 6 0 0 1-6-6z" fill-opacity="0"/><path d="M105.52 40.07h40.46m20.23 0h40.47m20.22 0l40.45-.02m20.23 0h40.46m20.23 0h40.46m20.23 0h40.46m20.23 0l40.45-.02m20.23 0h40.46m20.22 0h40.46m20.23 0h40.47M712.4 40h40.45m20.23 0h40.46m20.23 0H854l.94.07.9.22.88.35.8.5.72.6.6.72.5.8.37.88.23.9v19.6m0 19.6v39.17m0 19.6l.02 39.17m0 19.58v39.18m0 19.6v39.18m0 19.6l.02 39.17m0 19.6v39.18m0 19.6l.02 39.17m0 19.6v39.17m0 19.6V574l-.07.94-.22.9-.35.88-.5.8-.6.72-.72.6-.8.5-.88.37-.9.23H834.7m-20.22 0h-40.46m-20.23 0h-40.47m-20.22 0l-40.45.02m-20.23 0h-40.46m-20.23 0h-40.46m-20.23 0h-40.46m-20.23 0l-40.45.02m-20.23 0H349.2m-20.22 0h-40.46m-20.23 0h-40.47m-20.23.02h-40.45m-20.23 0h-40.46m-20.23 0H66l-.94-.07-.9-.22-.88-.35-.8-.5-.72-.6-.6-.72-.5-.8-.37-.88-.23-.9v-19.6m0-19.6V496.6m0-19.6l-.02-39.17m0-19.58v-39.18m0-19.6v-39.18m0-19.6l-.02-39.17m0-19.6v-39.18m0-19.6L60 143.96m0-19.6V85.2m0-19.6V46l.07-.94.22-.9.35-.88.5-.8.6-.72.72-.6.8-.5.88-.37.9-.23H85.3" stroke="#3a414a" stroke-width="2" fill="none"/><path d="M380 106a6 6 0 0 1 6-6h148a6 6 0 0 1 6 6v148a6 6 0 0 1-6 6H386a6 6 0 0 1-6-6z" stroke="#3a414a" fill="#54c45e"/><use xlink:href="#a" transform="matrix(1,0,0,1,385,105) translate(51.60493827160494 78.71527777777777)"/><path d="M100 106a6 6 0 0 1 6-6h148a6 6 0 0 1 6 6v148a6 6 0 0 1-6 6H106a6 6 0 0 1-6-6z" stroke="#3a414a" fill="#c3f7c8"/><use xlink:href="#b" transform="matrix(1,0,0,1,105,105) translate(52.160493827160494 78.71527777777777)"/><path d="M660 106a6 6 0 0 1 6-6h148a6 6 0 0 1 6 6v148a6 6 0 0 1-6 6H666a6 6 0 0 1-6-6z" stroke="#3a414a" fill="#c3f7c8"/><use xlink:href="#c" transform="matrix(1,0,0,1,664.9999999999999,105) translate(52.22222222222223 78.71527777777777)"/><path d="M1300 386a6 6 0 0 1 6-6h148a6 6 0 0 1 6 6v148a6 6 0 0 1-6 6h-148a6 6 0 0 1-6-6z" stroke="#3a414a" fill="#fc9432"/><use xlink:href="#d" transform="matrix(1,0,0,1,1305,385) translate(2.8703703703703667 78.71527777777777)"/><use xlink:href="#e" transform="matrix(1,0,0,1,1305,385) translate(59.598765432098766 78.71527777777777)"/><path d="M1300 666a6 6 0 0 1 6-6h148a6 6 0 0 1 6 6v148a6 6 0 0 1-6 6h-148a6 6 0 0 1-6-6z" stroke="#3a414a" fill="#ffe342"/><use xlink:href="#d" transform="matrix(1,0,0,1,1305,665) translate(2.8395061728395063 78.71527777777777)"/><use xlink:href="#f" transform="matrix(1,0,0,1,1305,665) translate(59.567901234567906 78.71527777777777)"/><path d="M379.04 180h-102.2" stroke="#3a414a" fill="none"/><path d="M379.54 180.5h-.52v-1h.52z" stroke="#3a414a" stroke-width=".05" fill="#3a414a"/><path d="M262.08 180l14.27-4.64v9.28z" stroke="#3a414a" fill="#3a414a"/><path d="M540.96 180h102.2" stroke="#3a414a" fill="none"/><path d="M540.98 180.5h-.52v-1h.52z" stroke="#3a414a" stroke-width=".05" fill="#3a414a"/><path d="M657.92 180l-14.27 4.64v-9.28z" stroke="#3a414a" fill="#3a414a"/><path d="M100 46a6 6 0 0 1 6-6h708a6 6 0 0 1 6 6v48a6 6 0 0 1-6 6H106a6 6 0 0 1-6-6z" stroke="#000" stroke-opacity="0" fill="#fff" fill-opacity="0"/><use xlink:href="#g" transform="matrix(1,0,0,1,105,45) translate(0 30.70833333333333)"/><use xlink:href="#h" transform="matrix(1,0,0,1,105,45) translate(62.14814814814813 30.70833333333333)"/><use xlink:href="#i" transform="matrix(1,0,0,1,105,45) translate(156.81481481481478 30.70833333333333)"/><use xlink:href="#j" transform="matrix(1,0,0,1,105,45) translate(260.29629629629625 30.70833333333333)"/><path d="M380 386a6 6 0 0 1 6-6h148a6 6 0 0 1 6 6v148a6 6 0 0 1-6 6H386a6 6 0 0 1-6-6z" stroke="#3a414a" fill="#e08fff"/><use xlink:href="#k" transform="matrix(1,0,0,1,385,385) translate(52.19135802469136 78.71527777777777)"/><path d="M460 260.96v102.2" stroke="#3a414a" fill="none"/><path d="M460.5 260.98h-1v-.52h1z" stroke="#3a414a" stroke-width=".05" fill="#3a414a"/><path d="M460 377.92l-4.64-14.27h9.28z" stroke="#3a414a" fill="#3a414a"/><path d="M100 386a6 6 0 0 1 6-6h148a6 6 0 0 1 6 6v148a6 6 0 0 1-6 6H106a6 6 0 0 1-6-6z" stroke="#3a414a" fill="#f4d9ff"/><use xlink:href="#l" transform="matrix(1,0,0,1,105,385) translate(43.51851851851852 78.71527777777777)"/><path d="M379.04 460h-102.2" stroke="#3a414a" fill="none"/><path d="M379.54 460.5h-.52v-1h.52z" stroke="#3a414a" stroke-width=".05" fill="#3a414a"/><path d="M262.08 460l14.27-4.64v9.28z" stroke="#3a414a" fill="#3a414a"/><path d="M380 726a6 6 0 0 1 6-6h148a6 6 0 0 1 6 6v148a6 6 0 0 1-6 6H386a6 6 0 0 1-6-6z" stroke="#3a414a" fill="#54c45e"/><use xlink:href="#a" transform="matrix(1,0,0,1,385,725) translate(51.60493827160494 78.71527777777777)"/><path d="M660 727.67a6 6 0 0 1 6-6h148a6 6 0 0 1 6 6v148a6 6 0 0 1-6 6H666a6 6 0 0 1-6-6z" stroke="#3a414a" fill="#c3f7c8"/><use xlink:href="#m" transform="matrix(1,0,0,1,664.9999999999999,726.6666666666667) translate(34.907407407407405 78.71527777777777)"/><path d="M100 666a6 6 0 0 1 6-6h708a6 6 0 0 1 6 6v49.67a6 6 0 0 1-6 6H106a6 6 0 0 1-6-6z" stroke="#000" stroke-opacity="0" fill="#fff" fill-opacity="0"/><use xlink:href="#n" transform="matrix(1,0,0,1,105,665) translate(0 31.083333333333332)"/><use xlink:href="#o" transform="matrix(1,0,0,1,105,665) translate(68.96296296296296 31.083333333333332)"/><use xlink:href="#p" transform="matrix(1,0,0,1,105,665) translate(163.62962962962962 31.083333333333332)"/><use xlink:href="#q" transform="matrix(1,0,0,1,105,665) translate(219.85185185185185 31.083333333333332)"/><use xlink:href="#r" transform="matrix(1,0,0,1,105,665) translate(292.2962962962963 31.083333333333332)"/><use xlink:href="#s" transform="matrix(1,0,0,1,105,665) translate(406.5185185185185 31.083333333333332)"/><use xlink:href="#t" transform="matrix(1,0,0,1,105,665) translate(489.25925925925924 31.083333333333332)"/><use xlink:href="#u" transform="matrix(1,0,0,1,105,665) translate(610.5185185185185 31.083333333333332)"/><path d="M380 1006a6 6 0 0 1 6-6h148a6 6 0 0 1 6 6v148a6 6 0 0 1-6 6H386a6 6 0 0 1-6-6z" stroke="#3a414a" fill="#e08fff"/><use xlink:href="#k" transform="matrix(1,0,0,1,385,1005) translate(52.19135802469136 78.71527777777777)"/><path d="M460 880.96v102.2" stroke="#3a414a" fill="none"/><path d="M460.5 880.98h-1v-.52h1z" stroke="#3a414a" stroke-width=".05" fill="#3a414a"/><path d="M460 997.92l-4.64-14.27h9.28z" stroke="#3a414a" fill="#3a414a"/><path d="M100 1006a6 6 0 0 1 6-6h148a6 6 0 0 1 6 6v148a6 6 0 0 1-6 6H106a6 6 0 0 1-6-6z" stroke="#3a414a" fill="#f4d9ff"/><use xlink:href="#l" transform="matrix(1,0,0,1,105,1005) translate(43.51851851851852 78.71527777777777)"/><path d="M660 1006a6 6 0 0 1 6-6h148a6 6 0 0 1 6 6v148a6 6 0 0 1-6 6H666a6 6 0 0 1-6-6z" stroke="#3a414a" fill="#f4d9ff"/><use xlink:href="#v" transform="matrix(1,0,0,1,665,1005) translate(49.75308641975309 78.71527777777777)"/><path d="M379.04 1080h-102.2" stroke="#3a414a" fill="none"/><path d="M379.54 1080.5h-.52v-1h.52z" stroke="#3a414a" stroke-width=".05" fill="#3a414a"/><path d="M262.08 1080l14.27-4.64v9.28z" stroke="#3a414a" fill="#3a414a"/><path d="M540.96 1080h102.2" stroke="#3a414a" fill="none"/><path d="M540.98 1080.5h-.52v-1h.52z" stroke="#3a414a" stroke-width=".05" fill="#3a414a"/><path d="M657.92 1080l-14.27 4.64v-9.28z" stroke="#3a414a" fill="#3a414a"/><path d="M540.96 800h102.2" stroke="#3a414a" fill="none"/><path d="M540.98 800.5h-.52v-1h.52z" stroke="#3a414a" stroke-width=".05" fill="#3a414a"/><path d="M657.92 800l-14.27 4.64v-9.28z" stroke="#3a414a" fill="#3a414a"/><path d="M740 999.04V898.5" stroke="#3a414a" fill="none"/><path d="M740.5 999.54h-1v-.52h1z" stroke="#3a414a" stroke-width=".05" fill="#3a414a"/><path d="M740 883.75l4.64 14.26h-9.28z" stroke="#3a414a" fill="#3a414a"/><path d="M1020 106a6 6 0 0 1 6-6h148a6 6 0 0 1 6 6v148a6 6 0 0 1-6 6h-148a6 6 0 0 1-6-6z" stroke="#3a414a" fill="#e08fff"/><use xlink:href="#k" transform="matrix(1,0,0,1,1025,105) translate(52.19135802469136 78.71527777777777)"/><path d="M1300 106a6 6 0 0 1 6-6h148a6 6 0 0 1 6 6v148a6 6 0 0 1-6 6h-148a6 6 0 0 1-6-6z" stroke="#3a414a" fill="#f4d9ff"/><use xlink:href="#v" transform="matrix(1,0,0,1,1305,105) translate(49.75308641975309 78.71527777777777)"/><path d="M1180.96 180h102.2" stroke="#3a414a" fill="none"/><path d="M1180.98 180.5h-.52v-1h.52z" stroke="#3a414a" stroke-width=".05" fill="#3a414a"/><path d="M1297.92 180l-14.27 4.64v-9.28z" stroke="#3a414a" fill="#3a414a"/><path d="M1020 46a6 6 0 0 1 6-6h468a6 6 0 0 1 6 6v48a6 6 0 0 1-6 6h-468a6 6 0 0 1-6-6z" stroke="#000" stroke-opacity="0" fill="#fff" fill-opacity="0"/><use xlink:href="#w" transform="matrix(1,0,0,1,1025,45) translate(0 30.708333333333332)"/><use xlink:href="#o" transform="matrix(1,0,0,1,1025,45) translate(112.5185185185185 30.708333333333332)"/><use xlink:href="#x" transform="matrix(1,0,0,1,1025,45) translate(207.18518518518516 30.708333333333332)"/><use xlink:href="#y" transform="matrix(1,0,0,1,1025,45) translate(341.70370370370364 30.708333333333332)"/><use xlink:href="#z" transform="matrix(1,0,0,1,1025,45) translate(395.03703703703695 30.708333333333332)"/><path d="M1020 386a6 6 0 0 1 6-6h148a6 6 0 0 1 6 6v148a6 6 0 0 1-6 6h-148a6 6 0 0 1-6-6z" stroke="#3a414a" fill="#54c45e"/><use xlink:href="#a" transform="matrix(1,0,0,1,1025,385) translate(51.60493827160494 78.71527777777777)"/><path d="M1020 666a6 6 0 0 1 6-6h148a6 6 0 0 1 6 6v148a6 6 0 0 1-6 6h-148a6 6 0 0 1-6-6z" stroke="#3a414a" fill="#c3f7c8"/><use xlink:href="#m" transform="matrix(1,0,0,1,1025,665) translate(34.907407407407405 78.71527777777777)"/><path d="M1100 540.96v102.2" stroke="#3a414a" fill="none"/><path d="M1100.5 540.98h-1v-.52h1z" stroke="#3a414a" stroke-width=".05" fill="#3a414a"/><path d="M1100 657.92l-4.64-14.27h9.28z" stroke="#3a414a" fill="#3a414a"/><path d="M1299.04 740h-102.2" stroke="#3a414a" fill="none"/><path d="M1299.54 740.5h-.52v-1h.52z" stroke="#3a414a" stroke-width=".05" fill="#3a414a"/><path d="M1182.08 740l14.27-4.64v9.28z" stroke="#3a414a" fill="#3a414a"/><path d="M1100 379.04v-102.2" stroke="#3a414a" fill="none"/><path d="M1100.5 379.54h-1v-.52h1z" stroke="#3a414a" stroke-width=".05" fill="#3a414a"/><path d="M1100 262.08l4.64 14.27h-9.28z" stroke="#3a414a" fill="#3a414a"/><path d="M1020 1006a6 6 0 0 1 6-6h148a6 6 0 0 1 6 6v148a6 6 0 0 1-6 6h-148a6 6 0 0 1-6-6z" stroke="#3a414a" fill="#ffe342"/><use xlink:href="#d" transform="matrix(1,0,0,1,1025,1005) translate(2.8395061728395063 78.71527777777777)"/><use xlink:href="#f" transform="matrix(1,0,0,1,1025,1005) translate(59.567901234567906 78.71527777777777)"/><path d="M1300 1006a6 6 0 0 1 6-6h148a6 6 0 0 1 6 6v148a6 6 0 0 1-6 6h-148a6 6 0 0 1-6-6z" stroke="#3a414a" fill="#54c45e"/><use xlink:href="#a" transform="matrix(1,0,0,1,1305,1005) translate(51.60493827160494 78.71527777777777)"/><path d="M1580 1006a6 6 0 0 1 6-6h148a6 6 0 0 1 6 6v148a6 6 0 0 1-6 6h-148a6 6 0 0 1-6-6z" stroke="#3a414a" fill="#c3f7c8"/><use xlink:href="#A" transform="matrix(1,0,0,1,1585,1005) translate(47.31481481481482 78.71527777777777)"/><path d="M1020 946a6 6 0 0 1 6-6h308a6 6 0 0 1 6 6v48a6 6 0 0 1-6 6h-308a6 6 0 0 1-6-6z" stroke="#000" stroke-opacity="0" fill="#fff" fill-opacity="0"/><use xlink:href="#B" transform="matrix(1,0,0,1,1025,945) translate(0 30.708333333333332)"/><use xlink:href="#C" transform="matrix(1,0,0,1,1025,945) translate(138.96296296296293 30.708333333333332)"/><path d="M1180.96 1080h102.2" stroke="#3a414a" fill="none"/><path d="M1180.98 1080.5h-.52v-1h.52z" stroke="#3a414a" stroke-width=".05" fill="#3a414a"/><path d="M1297.92 1080l-14.27 4.64v-9.28z" stroke="#3a414a" fill="#3a414a"/><path d="M1460.96 1080h102.2" stroke="#3a414a" fill="none"/><path d="M1460.98 1080.5h-.52v-1h.52z" stroke="#3a414a" stroke-width=".05" fill="#3a414a"/><path d="M1577.92 1080l-14.27 4.64v-9.28z" stroke="#3a414a" fill="#3a414a"/><path d="M100 726a6 6 0 0 1 6-6h148a6 6 0 0 1 6 6v148a6 6 0 0 1-6 6H106a6 6 0 0 1-6-6z" stroke="#3a414a" fill="#c3f7c8"/><g><use xlink:href="#b" transform="matrix(1,0,0,1,105,725) translate(52.160493827160494 78.71527777777777)"/></g><path d="M379.04 800h-102.2" stroke="#3a414a" fill="none"/><path d="M379.54 800.5h-.52v-1h.52z" stroke="#3a414a" stroke-width=".05" fill="#3a414a"/><path d="M262.08 800l14.27-4.64v9.28z" stroke="#3a414a" fill="#3a414a"/><path d="M1380 379.04v-102.2" stroke="#3a414a" fill="none"/><path d="M1380.5 379.54h-1v-.52h1z" stroke="#3a414a" stroke-width=".05" fill="#3a414a"/><path d="M1380 262.08l4.64 14.27h-9.28z" stroke="#3a414a" fill="#3a414a"/><path d="M1380 659.04v-102.2" stroke="#3a414a" fill="none"/><path d="M1380.5 659.54h-1v-.52h1z" stroke="#3a414a" stroke-width=".05" fill="#3a414a"/><path d="M1380 542.08l4.64 14.27h-9.28z" stroke="#3a414a" fill="#3a414a"/><path d="M1299.04 460h-102.19" stroke="#3a414a" fill="none"/><path d="M1299.54 460.5h-.52v-1h.52z" stroke="#3a414a" stroke-width=".05" fill="#3a414a"/><path d="M1182.08 460l14.27-4.64v9.28z" stroke="#3a414a" fill="#3a414a"/><defs><path fill="#3a414a" d="M232-93c-1 65-40 97-104 97C67 4 28-28 28-90v-158h33c8 89-33 224 67 224 102 0 64-133 71-224h33v155" id="D"/><path fill="#3a414a" d="M135-143c-3-34-86-38-87 0 15 53 115 12 119 90S17 21 10-45l28-5c4 36 97 45 98 0-10-56-113-15-118-90-4-57 82-63 122-42 12 7 21 19 24 35" id="E"/><path fill="#3a414a" d="M100-194c63 0 86 42 84 106H49c0 40 14 67 53 68 26 1 43-12 49-29l28 8c-11 28-37 45-77 45C44 4 14-33 15-96c1-61 26-98 85-98zm52 81c6-60-76-77-97-28-3 7-6 17-6 28h103" id="F"/><path fill="#3a414a" d="M114-163C36-179 61-72 57 0H25l-1-190h30c1 12-1 29 2 39 6-27 23-49 58-41v29" id="G"/><g id="a"><use transform="matrix(0.06172839506172839,0,0,0.06172839506172839,0,0)" xlink:href="#D"/><use transform="matrix(0.06172839506172839,0,0,0.06172839506172839,15.987654320987653,0)" xlink:href="#E"/><use transform="matrix(0.06172839506172839,0,0,0.06172839506172839,27.098765432098766,0)" xlink:href="#F"/><use transform="matrix(0.06172839506172839,0,0,0.06172839506172839,39.44444444444444,0)" xlink:href="#G"/></g><path fill="#3a414a" d="M205 0l-28-72H64L36 0H1l101-248h38L239 0h-34zm-38-99l-47-123c-12 45-31 82-46 123h93" id="H"/><path fill="#3a414a" d="M84 4C-5 8 30-112 23-190h32v120c0 31 7 50 39 49 72-2 45-101 50-169h31l1 190h-30c-1-10 1-25-2-33-11 22-28 36-60 37" id="I"/><path fill="#3a414a" d="M59-47c-2 24 18 29 38 22v24C64 9 27 4 27-40v-127H5v-23h24l9-43h21v43h35v23H59v120" id="J"/><path fill="#3a414a" d="M106-169C34-169 62-67 57 0H25v-261h32l-1 103c12-21 28-36 61-36 89 0 53 116 60 194h-32v-121c2-32-8-49-39-48" id="K"/><g id="b"><use transform="matrix(0.06172839506172839,0,0,0.06172839506172839,0,0)" xlink:href="#H"/><use transform="matrix(0.06172839506172839,0,0,0.06172839506172839,14.814814814814813,0)" xlink:href="#I"/><use transform="matrix(0.06172839506172839,0,0,0.06172839506172839,27.160493827160494,0)" xlink:href="#J"/><use transform="matrix(0.06172839506172839,0,0,0.06172839506172839,33.333333333333336,0)" xlink:href="#K"/></g><path fill="#3a414a" d="M233-177c-1 41-23 64-60 70L243 0h-38l-65-103H63V0H30v-248c88 3 205-21 203 71zM63-129c60-2 137 13 137-47 0-61-80-42-137-45v92" id="L"/><path fill="#3a414a" d="M100-194c62-1 85 37 85 99 1 63-27 99-86 99S16-35 15-95c0-66 28-99 85-99zM99-20c44 1 53-31 53-75 0-43-8-75-51-75s-53 32-53 75 10 74 51 75" id="M"/><path fill="#3a414a" d="M24 0v-261h32V0H24" id="N"/><g id="c"><use transform="matrix(0.06172839506172839,0,0,0.06172839506172839,0,0)" xlink:href="#L"/><use transform="matrix(0.06172839506172839,0,0,0.06172839506172839,15.987654320987653,0)" xlink:href="#M"/><use transform="matrix(0.06172839506172839,0,0,0.06172839506172839,28.333333333333332,0)" xlink:href="#N"/><use transform="matrix(0.06172839506172839,0,0,0.06172839506172839,33.20987654320987,0)" xlink:href="#F"/></g><path fill="#3a414a" d="M85-194c31 0 48 13 60 33l-1-100h32l1 261h-30c-2-10 0-23-3-31C134-8 116 4 85 4 32 4 16-35 15-94c0-66 23-100 70-100zm9 24c-40 0-46 34-46 75 0 40 6 74 45 74 42 0 51-32 51-76 0-42-9-74-50-73" id="O"/><path fill="#3a414a" d="M24-231v-30h32v30H24zM24 0v-190h32V0H24" id="P"/><g id="d"><use transform="matrix(0.06172839506172839,0,0,0.06172839506172839,0,0)" xlink:href="#H"/><use transform="matrix(0.06172839506172839,0,0,0.06172839506172839,14.814814814814813,0)" xlink:href="#I"/><use transform="matrix(0.06172839506172839,0,0,0.06172839506172839,27.160493827160494,0)" xlink:href="#O"/><use transform="matrix(0.06172839506172839,0,0,0.06172839506172839,39.50617283950617,0)" xlink:href="#P"/><use transform="matrix(0.06172839506172839,0,0,0.06172839506172839,44.382716049382715,0)" xlink:href="#J"/></g><path fill="#3a414a" d="M30 0v-248h187v28H63v79h144v27H63v87h162V0H30" id="Q"/><path fill="#3a414a" d="M141-36C126-15 110 5 73 4 37 3 15-17 15-53c-1-64 63-63 125-63 3-35-9-54-41-54-24 1-41 7-42 31l-33-3c5-37 33-52 76-52 45 0 72 20 72 64v82c-1 20 7 32 28 27v20c-31 9-61-2-59-35zM48-53c0 20 12 33 32 33 41-3 63-29 60-74-43 2-92-5-92 41" id="R"/><path fill="#3a414a" d="M117-194c89-4 53 116 60 194h-32v-121c0-31-8-49-39-48C34-167 62-67 57 0H25l-1-190h30c1 10-1 24 2 32 11-22 29-35 61-36" id="S"/><path fill="#3a414a" d="M177-190C167-65 218 103 67 71c-23-6-38-20-44-43l32-5c15 47 100 32 89-28v-30C133-14 115 1 83 1 29 1 15-40 15-95c0-56 16-97 71-98 29-1 48 16 59 35 1-10 0-23 2-32h30zM94-22c36 0 50-32 50-73 0-42-14-75-50-75-39 0-46 34-46 75s6 73 46 73" id="T"/><g id="e"><use transform="matrix(0.06172839506172839,0,0,0.06172839506172839,0,0)" xlink:href="#Q"/><use transform="matrix(0.06172839506172839,0,0,0.06172839506172839,14.814814814814813,0)" xlink:href="#R"/><use transform="matrix(0.06172839506172839,0,0,0.06172839506172839,27.160493827160494,0)" xlink:href="#G"/><use transform="matrix(0.06172839506172839,0,0,0.06172839506172839,34.50617283950617,0)" xlink:href="#S"/><use transform="matrix(0.06172839506172839,0,0,0.06172839506172839,46.85185185185185,0)" xlink:href="#P"/><use transform="matrix(0.06172839506172839,0,0,0.06172839506172839,51.72839506172839,0)" xlink:href="#S"/><use transform="matrix(0.06172839506172839,0,0,0.06172839506172839,64.07407407407408,0)" xlink:href="#T"/><use transform="matrix(0.06172839506172839,0,0,0.06172839506172839,76.41975308641976,0)" xlink:href="#E"/></g><path fill="#3a414a" d="M30-248c87 1 191-15 191 75 0 78-77 80-158 76V0H30v-248zm33 125c57 0 124 11 124-50 0-59-68-47-124-48v98" id="U"/><path fill="#3a414a" d="M179-190L93 31C79 59 56 82 12 73V49c39 6 53-20 64-50L1-190h34L92-34l54-156h33" id="V"/><path fill="#3a414a" d="M210-169c-67 3-38 105-44 169h-31v-121c0-29-5-50-35-48C34-165 62-65 56 0H25l-1-190h30c1 10-1 24 2 32 10-44 99-50 107 0 11-21 27-35 58-36 85-2 47 119 55 194h-31v-121c0-29-5-49-35-48" id="W"/><g id="f"><use transform="matrix(0.06172839506172839,0,0,0.06172839506172839,0,0)" xlink:href="#U"/><use transform="matrix(0.06172839506172839,0,0,0.06172839506172839,14.814814814814813,0)" xlink:href="#R"/><use transform="matrix(0.06172839506172839,0,0,0.06172839506172839,27.160493827160494,0)" xlink:href="#V"/><use transform="matrix(0.06172839506172839,0,0,0.06172839506172839,38.27160493827161,0)" xlink:href="#W"/><use transform="matrix(0.06172839506172839,0,0,0.06172839506172839,56.72839506172839,0)" xlink:href="#F"/><use transform="matrix(0.06172839506172839,0,0,0.06172839506172839,69.07407407407408,0)" xlink:href="#S"/><use transform="matrix(0.06172839506172839,0,0,0.06172839506172839,81.41975308641976,0)" xlink:href="#J"/></g><path fill="#3a414a" d="M127-220V0H93v-220H8v-28h204v28h-85" id="X"/><path fill="#3a414a" d="M143 0L79-87 56-68V0H24v-261h32v163l83-92h37l-77 82L181 0h-38" id="Y"/><g id="g"><use transform="matrix(0.07407407407407406,0,0,0.07407407407407406,0,0)" xlink:href="#X"/><use transform="matrix(0.07407407407407406,0,0,0.07407407407407406,13.259259259259256,0)" xlink:href="#R"/><use transform="matrix(0.07407407407407406,0,0,0.07407407407407406,28.074074074074066,0)" xlink:href="#E"/><use transform="matrix(0.07407407407407406,0,0,0.07407407407407406,41.4074074074074,0)" xlink:href="#Y"/></g><g id="h"><use transform="matrix(0.07407407407407406,0,0,0.07407407407407406,0,0)" xlink:href="#O"/><use transform="matrix(0.07407407407407406,0,0,0.07407407407407406,14.814814814814811,0)" xlink:href="#M"/><use transform="matrix(0.07407407407407406,0,0,0.07407407407407406,29.629629629629623,0)" xlink:href="#W"/><use transform="matrix(0.07407407407407406,0,0,0.07407407407407406,51.777777777777764,0)" xlink:href="#R"/><use transform="matrix(0.07407407407407406,0,0,0.07407407407407406,66.59259259259258,0)" xlink:href="#P"/><use transform="matrix(0.07407407407407406,0,0,0.07407407407407406,72.44444444444443,0)" xlink:href="#S"/></g><path fill="#3a414a" d="M87 75C49 33 22-17 22-94c0-76 28-126 65-167h31c-38 41-64 92-64 168S80 34 118 75H87" id="Z"/><path fill="#3a414a" d="M212-179c-10-28-35-45-73-45-59 0-87 40-87 99 0 60 29 101 89 101 43 0 62-24 78-52l27 14C228-24 195 4 139 4 59 4 22-46 18-125c-6-104 99-153 187-111 19 9 31 26 39 46" id="aa"/><path fill="#3a414a" d="M68-38c1 34 0 65-14 84H32c9-13 17-26 17-46H33v-38h35" id="ab"/><g id="i"><use transform="matrix(0.07407407407407406,0,0,0.07407407407407406,0,0)" xlink:href="#Z"/><use transform="matrix(0.07407407407407406,0,0,0.07407407407407406,8.814814814814813,0)" xlink:href="#aa"/><use transform="matrix(0.07407407407407406,0,0,0.07407407407407406,27.999999999999993,0)" xlink:href="#G"/><use transform="matrix(0.07407407407407406,0,0,0.07407407407407406,36.81481481481481,0)" xlink:href="#F"/><use transform="matrix(0.07407407407407406,0,0,0.07407407407407406,51.62962962962962,0)" xlink:href="#R"/><use transform="matrix(0.07407407407407406,0,0,0.07407407407407406,66.44444444444443,0)" xlink:href="#J"/><use transform="matrix(0.07407407407407406,0,0,0.07407407407407406,73.85185185185183,0)" xlink:href="#F"/><use transform="matrix(0.07407407407407406,0,0,0.07407407407407406,88.66666666666664,0)" xlink:href="#ab"/></g><path fill="#3a414a" d="M33-261c38 41 65 92 65 168S71 34 33 75H2C39 34 66-17 66-93S39-220 2-261h31" id="ac"/><g id="j"><use transform="matrix(0.07407407407407406,0,0,0.07407407407407406,0,0)" xlink:href="#L"/><use transform="matrix(0.07407407407407406,0,0,0.07407407407407406,19.18518518518518,0)" xlink:href="#F"/><use transform="matrix(0.07407407407407406,0,0,0.07407407407407406,33.99999999999999,0)" xlink:href="#R"/><use transform="matrix(0.07407407407407406,0,0,0.07407407407407406,48.8148148148148,0)" xlink:href="#E"/><use transform="matrix(0.07407407407407406,0,0,0.07407407407407406,62.14814814814813,0)" xlink:href="#E"/><use transform="matrix(0.07407407407407406,0,0,0.07407407407407406,75.48148148148147,0)" xlink:href="#P"/><use transform="matrix(0.07407407407407406,0,0,0.07407407407407406,81.33333333333331,0)" xlink:href="#T"/><use transform="matrix(0.07407407407407406,0,0,0.07407407407407406,96.14814814814812,0)" xlink:href="#S"/><use transform="matrix(0.07407407407407406,0,0,0.07407407407407406,110.96296296296293,0)" xlink:href="#ac"/></g><g id="k"><use transform="matrix(0.06172839506172839,0,0,0.06172839506172839,0,0)" xlink:href="#X"/><use transform="matrix(0.06172839506172839,0,0,0.06172839506172839,11.049382716049381,0)" xlink:href="#R"/><use transform="matrix(0.06172839506172839,0,0,0.06172839506172839,23.39506172839506,0)" xlink:href="#E"/><use transform="matrix(0.06172839506172839,0,0,0.06172839506172839,34.50617283950617,0)" xlink:href="#Y"/></g><path fill="#3a414a" d="M185-189c-5-48-123-54-124 2 14 75 158 14 163 119 3 78-121 87-175 55-17-10-28-26-33-46l33-7c5 56 141 63 141-1 0-78-155-14-162-118-5-82 145-84 179-34 5 7 8 16 11 25" id="ad"/><g id="l"><use transform="matrix(0.06172839506172839,0,0,0.06172839506172839,0,0)" xlink:href="#ad"/><use transform="matrix(0.06172839506172839,0,0,0.06172839506172839,14.814814814814813,0)" xlink:href="#J"/><use transform="matrix(0.06172839506172839,0,0,0.06172839506172839,20.98765432098765,0)" xlink:href="#R"/><use transform="matrix(0.06172839506172839,0,0,0.06172839506172839,33.33333333333333,0)" xlink:href="#J"/><use transform="matrix(0.06172839506172839,0,0,0.06172839506172839,39.50617283950617,0)" xlink:href="#I"/><use transform="matrix(0.06172839506172839,0,0,0.06172839506172839,51.85185185185185,0)" xlink:href="#E"/></g><path fill="#3a414a" d="M160-131c35 5 61 23 61 61C221 17 115-2 30 0v-248c76 3 177-17 177 60 0 33-19 50-47 57zm-97-11c50-1 110 9 110-42 0-47-63-36-110-37v79zm0 115c55-2 124 14 124-45 0-56-70-42-124-44v89" id="ae"/><path fill="#3a414a" d="M96-169c-40 0-48 33-48 73s9 75 48 75c24 0 41-14 43-38l32 2c-6 37-31 61-74 61-59 0-76-41-82-99-10-93 101-131 147-64 4 7 5 14 7 22l-32 3c-4-21-16-35-41-35" id="af"/><g id="m"><use transform="matrix(0.06172839506172839,0,0,0.06172839506172839,0,0)" xlink:href="#ae"/><use transform="matrix(0.06172839506172839,0,0,0.06172839506172839,14.814814814814813,0)" xlink:href="#R"/><use transform="matrix(0.06172839506172839,0,0,0.06172839506172839,27.160493827160494,0)" xlink:href="#N"/><use transform="matrix(0.06172839506172839,0,0,0.06172839506172839,32.03703703703704,0)" xlink:href="#R"/><use transform="matrix(0.06172839506172839,0,0,0.06172839506172839,44.382716049382715,0)" xlink:href="#S"/><use transform="matrix(0.06172839506172839,0,0,0.06172839506172839,56.72839506172839,0)" xlink:href="#af"/><use transform="matrix(0.06172839506172839,0,0,0.06172839506172839,67.8395061728395,0)" xlink:href="#F"/></g><path fill="#3a414a" d="M266 0h-40l-56-210L115 0H75L2-248h35L96-30l15-64 43-154h32l59 218 59-218h35" id="ag"/><g id="n"><use transform="matrix(0.07407407407407407,0,0,0.07407407407407407,0,0)" xlink:href="#ag"/><use transform="matrix(0.07407407407407407,0,0,0.07407407407407407,24.59259259259259,0)" xlink:href="#M"/><use transform="matrix(0.07407407407407407,0,0,0.07407407407407407,39.407407407407405,0)" xlink:href="#G"/><use transform="matrix(0.07407407407407407,0,0,0.07407407407407407,48.22222222222222,0)" xlink:href="#Y"/></g><g id="o"><use transform="matrix(0.07407407407407407,0,0,0.07407407407407407,0,0)" xlink:href="#O"/><use transform="matrix(0.07407407407407407,0,0,0.07407407407407407,14.814814814814813,0)" xlink:href="#M"/><use transform="matrix(0.07407407407407407,0,0,0.07407407407407407,29.629629629629626,0)" xlink:href="#W"/><use transform="matrix(0.07407407407407407,0,0,0.07407407407407407,51.77777777777777,0)" xlink:href="#R"/><use transform="matrix(0.07407407407407407,0,0,0.07407407407407407,66.59259259259258,0)" xlink:href="#P"/><use transform="matrix(0.07407407407407407,0,0,0.07407407407407407,72.44444444444443,0)" xlink:href="#S"/></g><g id="p"><use transform="matrix(0.07407407407407407,0,0,0.07407407407407407,0,0)" xlink:href="#Z"/><use transform="matrix(0.07407407407407407,0,0,0.07407407407407407,8.814814814814815,0)" xlink:href="#ad"/><use transform="matrix(0.07407407407407407,0,0,0.07407407407407407,26.592592592592595,0)" xlink:href="#F"/><use transform="matrix(0.07407407407407407,0,0,0.07407407407407407,41.407407407407405,0)" xlink:href="#J"/></g><path fill="#3a414a" d="M115-194c55 1 70 41 70 98S169 2 115 4C84 4 66-9 55-30l1 105H24l-1-265h31l2 30c10-21 28-34 59-34zm-8 174c40 0 45-34 45-75s-6-73-45-74c-42 0-51 32-51 76 0 43 10 73 51 73" id="ah"/><g id="q"><use transform="matrix(0.07407407407407407,0,0,0.07407407407407407,0,0)" xlink:href="#ah"/><use transform="matrix(0.07407407407407407,0,0,0.07407407407407407,14.814814814814813,0)" xlink:href="#G"/><use transform="matrix(0.07407407407407407,0,0,0.07407407407407407,23.629629629629623,0)" xlink:href="#P"/><use transform="matrix(0.07407407407407407,0,0,0.07407407407407407,29.481481481481477,0)" xlink:href="#af"/><use transform="matrix(0.07407407407407407,0,0,0.07407407407407407,42.81481481481481,0)" xlink:href="#F"/><use transform="matrix(0.07407407407407407,0,0,0.07407407407407407,57.62962962962962,0)" xlink:href="#ab"/></g><path fill="#3a414a" d="M16-82v-28h88v28H16" id="ai"/><path fill="#3a414a" d="M101-234c-31-9-42 10-38 44h38v23H63V0H32v-167H5v-23h27c-7-52 17-82 69-68v24" id="aj"/><g id="r"><use transform="matrix(0.07407407407407407,0,0,0.07407407407407407,0,0)" xlink:href="#ag"/><use transform="matrix(0.07407407407407407,0,0,0.07407407407407407,24.59259259259259,0)" xlink:href="#G"/><use transform="matrix(0.07407407407407407,0,0,0.07407407407407407,33.407407407407405,0)" xlink:href="#P"/><use transform="matrix(0.07407407407407407,0,0,0.07407407407407407,39.259259259259245,0)" xlink:href="#J"/><use transform="matrix(0.07407407407407407,0,0,0.07407407407407407,46.66666666666666,0)" xlink:href="#F"/><use transform="matrix(0.07407407407407407,0,0,0.07407407407407407,61.48148148148147,0)" xlink:href="#ai"/><use transform="matrix(0.07407407407407407,0,0,0.07407407407407407,70.29629629629628,0)" xlink:href="#M"/><use transform="matrix(0.07407407407407407,0,0,0.07407407407407407,85.11111111111109,0)" xlink:href="#aj"/><use transform="matrix(0.07407407407407407,0,0,0.07407407407407407,91.99999999999997,0)" xlink:href="#aj"/><use transform="matrix(0.07407407407407407,0,0,0.07407407407407407,99.40740740740736,0)" xlink:href="#ab"/></g><g id="s"><use transform="matrix(0.07407407407407407,0,0,0.07407407407407407,0,0)" xlink:href="#Q"/><use transform="matrix(0.07407407407407407,0,0,0.07407407407407407,17.77777777777778,0)" xlink:href="#S"/><use transform="matrix(0.07407407407407407,0,0,0.07407407407407407,32.592592592592595,0)" xlink:href="#G"/><use transform="matrix(0.07407407407407407,0,0,0.07407407407407407,41.40740740740741,0)" xlink:href="#M"/><use transform="matrix(0.07407407407407407,0,0,0.07407407407407407,56.22222222222223,0)" xlink:href="#N"/><use transform="matrix(0.07407407407407407,0,0,0.07407407407407407,62.074074074074076,0)" xlink:href="#N"/><use transform="matrix(0.07407407407407407,0,0,0.07407407407407407,67.92592592592592,0)" xlink:href="#ab"/></g><g id="t"><use transform="matrix(0.07407407407407407,0,0,0.07407407407407407,0,0)" xlink:href="#aa"/><use transform="matrix(0.07407407407407407,0,0,0.07407407407407407,19.185185185185183,0)" xlink:href="#M"/><use transform="matrix(0.07407407407407407,0,0,0.07407407407407407,34,0)" xlink:href="#W"/><use transform="matrix(0.07407407407407407,0,0,0.07407407407407407,56.148148148148145,0)" xlink:href="#ah"/><use transform="matrix(0.07407407407407407,0,0,0.07407407407407407,70.96296296296296,0)" xlink:href="#N"/><use transform="matrix(0.07407407407407407,0,0,0.07407407407407407,76.81481481481481,0)" xlink:href="#F"/><use transform="matrix(0.07407407407407407,0,0,0.07407407407407407,91.62962962962962,0)" xlink:href="#J"/><use transform="matrix(0.07407407407407407,0,0,0.07407407407407407,99.03703703703704,0)" xlink:href="#F"/></g><g id="u"><use transform="matrix(0.07407407407407407,0,0,0.07407407407407407,0,0)" xlink:href="#X"/><use transform="matrix(0.07407407407407407,0,0,0.07407407407407407,13.259259259259258,0)" xlink:href="#R"/><use transform="matrix(0.07407407407407407,0,0,0.07407407407407407,28.074074074074073,0)" xlink:href="#E"/><use transform="matrix(0.07407407407407407,0,0,0.07407407407407407,41.407407407407405,0)" xlink:href="#Y"/><use transform="matrix(0.07407407407407407,0,0,0.07407407407407407,54.740740740740726,0)" xlink:href="#ac"/></g><g id="v"><use transform="matrix(0.06172839506172839,0,0,0.06172839506172839,0,0)" xlink:href="#U"/><use transform="matrix(0.06172839506172839,0,0,0.06172839506172839,14.814814814814813,0)" xlink:href="#G"/><use transform="matrix(0.06172839506172839,0,0,0.06172839506172839,22.160493827160494,0)" xlink:href="#P"/><use transform="matrix(0.06172839506172839,0,0,0.06172839506172839,27.037037037037038,0)" xlink:href="#af"/><use transform="matrix(0.06172839506172839,0,0,0.06172839506172839,38.14814814814815,0)" xlink:href="#F"/></g><g id="w"><use transform="matrix(0.07407407407407407,0,0,0.07407407407407407,0,0)" xlink:href="#U"/><use transform="matrix(0.07407407407407407,0,0,0.07407407407407407,17.77777777777778,0)" xlink:href="#R"/><use transform="matrix(0.07407407407407407,0,0,0.07407407407407407,32.592592592592595,0)" xlink:href="#V"/><use transform="matrix(0.07407407407407407,0,0,0.07407407407407407,45.925925925925924,0)" xlink:href="#W"/><use transform="matrix(0.07407407407407407,0,0,0.07407407407407407,68.07407407407408,0)" xlink:href="#F"/><use transform="matrix(0.07407407407407407,0,0,0.07407407407407407,82.88888888888889,0)" xlink:href="#S"/><use transform="matrix(0.07407407407407407,0,0,0.07407407407407407,97.7037037037037,0)" xlink:href="#J"/></g><g id="x"><use transform="matrix(0.07407407407407407,0,0,0.07407407407407407,0,0)" xlink:href="#Z"/><use transform="matrix(0.07407407407407407,0,0,0.07407407407407407,8.814814814814815,0)" xlink:href="#aa"/><use transform="matrix(0.07407407407407407,0,0,0.07407407407407407,28,0)" xlink:href="#R"/><use transform="matrix(0.07407407407407407,0,0,0.07407407407407407,42.81481481481481,0)" xlink:href="#N"/><use transform="matrix(0.07407407407407407,0,0,0.07407407407407407,48.66666666666666,0)" xlink:href="#af"/><use transform="matrix(0.07407407407407407,0,0,0.07407407407407407,61.999999999999986,0)" xlink:href="#I"/><use transform="matrix(0.07407407407407407,0,0,0.07407407407407407,76.8148148148148,0)" xlink:href="#N"/><use transform="matrix(0.07407407407407407,0,0,0.07407407407407407,82.66666666666664,0)" xlink:href="#R"/><use transform="matrix(0.07407407407407407,0,0,0.07407407407407407,97.48148148148145,0)" xlink:href="#J"/><use transform="matrix(0.07407407407407407,0,0,0.07407407407407407,104.88888888888884,0)" xlink:href="#F"/><use transform="matrix(0.07407407407407407,0,0,0.07407407407407407,119.70370370370367,0)" xlink:href="#ab"/></g><g id="y"><use transform="matrix(0.07407407407407407,0,0,0.07407407407407407,0,0)" xlink:href="#U"/><use transform="matrix(0.07407407407407407,0,0,0.07407407407407407,17.77777777777778,0)" xlink:href="#R"/><use transform="matrix(0.07407407407407407,0,0,0.07407407407407407,32.592592592592595,0)" xlink:href="#V"/></g><g id="z"><use transform="matrix(0.07407407407407407,0,0,0.07407407407407407,0,0)" xlink:href="#M"/><use transform="matrix(0.07407407407407407,0,0,0.07407407407407407,14.814814814814813,0)" xlink:href="#I"/><use transform="matrix(0.07407407407407407,0,0,0.07407407407407407,29.629629629629626,0)" xlink:href="#J"/><use transform="matrix(0.07407407407407407,0,0,0.07407407407407407,37.03703703703703,0)" xlink:href="#ac"/></g><g id="A"><use transform="matrix(0.06172839506172839,0,0,0.06172839506172839,0,0)" xlink:href="#Q"/><use transform="matrix(0.06172839506172839,0,0,0.06172839506172839,14.814814814814813,0)" xlink:href="#W"/><use transform="matrix(0.06172839506172839,0,0,0.06172839506172839,33.2716049382716,0)" xlink:href="#R"/><use transform="matrix(0.06172839506172839,0,0,0.06172839506172839,45.61728395061728,0)" xlink:href="#P"/><use transform="matrix(0.06172839506172839,0,0,0.06172839506172839,50.49382716049382,0)" xlink:href="#N"/></g><path fill="#3a414a" d="M190 0L58-211 59 0H30v-248h39L202-35l-2-213h31V0h-41" id="ak"/><g id="B"><use transform="matrix(0.07407407407407407,0,0,0.07407407407407407,0,0)" xlink:href="#ak"/><use transform="matrix(0.07407407407407407,0,0,0.07407407407407407,19.185185185185183,0)" xlink:href="#M"/><use transform="matrix(0.07407407407407407,0,0,0.07407407407407407,34,0)" xlink:href="#J"/><use transform="matrix(0.07407407407407407,0,0,0.07407407407407407,41.407407407407405,0)" xlink:href="#P"/><use transform="matrix(0.07407407407407407,0,0,0.07407407407407407,47.259259259259245,0)" xlink:href="#aj"/><use transform="matrix(0.07407407407407407,0,0,0.07407407407407407,54.66666666666666,0)" xlink:href="#P"/><use transform="matrix(0.07407407407407407,0,0,0.07407407407407407,60.518518518518505,0)" xlink:href="#af"/><use transform="matrix(0.07407407407407407,0,0,0.07407407407407407,73.85185185185183,0)" xlink:href="#R"/><use transform="matrix(0.07407407407407407,0,0,0.07407407407407407,88.66666666666664,0)" xlink:href="#J"/><use transform="matrix(0.07407407407407407,0,0,0.07407407407407407,96.07407407407405,0)" xlink:href="#P"/><use transform="matrix(0.07407407407407407,0,0,0.07407407407407407,101.92592592592591,0)" xlink:href="#M"/><use transform="matrix(0.07407407407407407,0,0,0.07407407407407407,116.7407407407407,0)" xlink:href="#S"/></g><g id="C"><use transform="matrix(0.07407407407407407,0,0,0.07407407407407407,0,0)" xlink:href="#O"/><use transform="matrix(0.07407407407407407,0,0,0.07407407407407407,14.814814814814813,0)" xlink:href="#M"/><use transform="matrix(0.07407407407407407,0,0,0.07407407407407407,29.629629629629626,0)" xlink:href="#W"/><use transform="matrix(0.07407407407407407,0,0,0.07407407407407407,51.77777777777777,0)" xlink:href="#R"/><use transform="matrix(0.07407407407407407,0,0,0.07407407407407407,66.59259259259258,0)" xlink:href="#P"/><use transform="matrix(0.07407407407407407,0,0,0.07407407407407407,72.44444444444443,0)" xlink:href="#S"/></g></defs></g></svg>