<svg xmlns="http://www.w3.org/2000/svg" xmlns:xlink="http://www.w3.org/1999/xlink" xmlns:lucid="lucid" width="1572.46" height="1278.65"><g transform="translate(-3.999999999999993 16)" lucid:page-tab-id="0_0"><path d="M120 1005.98a6 6 0 0 1 6-6h328a6 6 0 0 1 6 6v194.67a6 6 0 0 1-6 6H126a6 6 0 0 1-6-6z" fill-opacity="0"/><path d="M168.92 1000.05h43.86m21.93-.02h43.87m21.93 0l43.85-.02m21.93 0h43.86m21.93 0l21.93-.02.94.08.9.22.88.36.8.5.72.6.6.72.5.8.37.87.23.9v21.75m0 21.73l.03 43.48m0 21.73l.02 43.48m0 21.74l.02 21.73-.07.94-.22.9-.35.87-.5.8-.6.72-.72.6-.8.5-.88.36-.9.22H433m-21.92 0l-43.86.02m-21.93 0h-43.87m-21.93.02h-43.85m-21.93 0l-43.86.02m-21.93 0H126l-.94-.06-.9-.22-.88-.36-.8-.5-.72-.6-.6-.72-.5-.8-.37-.88-.23-.9v-21.75m0-21.73l-.03-43.47m0-21.73l-.02-43.47m0-21.73l-.02-21.74.07-.94.22-.9.35-.88.5-.8.6-.72.72-.6.8-.5.88-.36.9-.22H147" stroke="#979ea8" stroke-width="2" fill="none"/><path d="M570 306a6 6 0 0 1 6-6h148a6 6 0 0 1 6 6v108a6 6 0 0 1-6 6H576a6 6 0 0 1-6-6z" stroke="#3a414a" fill="#fff"/><use xlink:href="#a" transform="matrix(1,0,0,1,582,312.00000000000006) translate(5.129629629629633 53.77777777777778)"/><use xlink:href="#b" transform="matrix(1,0,0,1,582,312.00000000000006) translate(56.91975308641975 53.77777777777778)"/><path d="M170 666a6 6 0 0 1 6-6h148a6 6 0 0 1 6 6v108a6 6 0 0 1-6 6H176a6 6 0 0 1-6-6z" stroke="#3a414a" fill="#fff"/><use xlink:href="#c" transform="matrix(1,0,0,1,182,672) translate(13.833333333333329 38.77777777777778)"/><use xlink:href="#d" transform="matrix(1,0,0,1,182,672) translate(71.67283950617283 38.77777777777778)"/><use xlink:href="#b" transform="matrix(1,0,0,1,182,672) translate(31.02469135802469 65.44444444444446)"/><path d="M570 666a6 6 0 0 1 6-6h148a6 6 0 0 1 6 6v108a6 6 0 0 1-6 6H576a6 6 0 0 1-6-6z" stroke="#3a414a" fill="#fff"/><use xlink:href="#e" transform="matrix(1,0,0,1,582,672) translate(1.4259259259259238 38.77777777777778)"/><use xlink:href="#f" transform="matrix(1,0,0,1,582,672) translate(54.388888888888886 38.77777777777778)"/><use xlink:href="#b" transform="matrix(1,0,0,1,582,672) translate(31.02469135802469 65.44444444444446)"/><path d="M970 306a6 6 0 0 1 6-6h148a6 6 0 0 1 6 6v108a6 6 0 0 1-6 6H976a6 6 0 0 1-6-6z" stroke="#3a414a" fill="#fff"/><use xlink:href="#g" transform="matrix(1,0,0,1,982,312.00000000000006) translate(24.234567901234563 38.77777777777778)"/><use xlink:href="#b" transform="matrix(1,0,0,1,982,312.00000000000006) translate(31.02469135802469 65.44444444444446)"/><path d="M970 666a6 6 0 0 1 6-6h148a6 6 0 0 1 6 6v108a6 6 0 0 1-6 6H976a6 6 0 0 1-6-6z" stroke="#3a414a" fill="#fff"/><use xlink:href="#h" transform="matrix(1,0,0,1,982,672) translate(18.648148148148145 38.77777777777778)"/><use xlink:href="#b" transform="matrix(1,0,0,1,982,672) translate(31.02469135802469 65.44444444444446)"/><path d="M1370 666a6 6 0 0 1 6-6h148a6 6 0 0 1 6 6v108a6 6 0 0 1-6 6h-148a6 6 0 0 1-6-6z" stroke="#3a414a" fill="#fff"/><use xlink:href="#i" transform="matrix(1,0,0,1,1382,672) translate(3.925925925925924 53.77777777777778)"/><use xlink:href="#b" transform="matrix(1,0,0,1,1382,672) translate(58.123456790123456 53.77777777777778)"/><path d="M970 1026a6 6 0 0 1 6-6h148a6 6 0 0 1 6 6v108a6 6 0 0 1-6 6H976a6 6 0 0 1-6-6z" stroke="#3a414a" fill="#fff"/><use xlink:href="#j" transform="matrix(1,0,0,1,982,1032) translate(13.185185185185176 38.77777777777778)"/><use xlink:href="#b" transform="matrix(1,0,0,1,982,1032) translate(31.02469135802469 65.44444444444446)"/><path d="M650 420.96v222.2" stroke="#3a414a" fill="none"/><path d="M650.5 420.98h-1v-.52h1z" stroke="#3a414a" stroke-width=".05" fill="#3a414a"/><path d="M650 657.92l-4.64-14.27h9.28z" stroke="#3a414a" fill="#3a414a"/><path d="M339.87 649.55l219.68-219.68" stroke="#3a414a" fill="none"/><path d="M329.43 660l6.8-13.38 6.56 6.56zM570 419.43l-6.82 13.36-6.56-6.56z" stroke="#3a414a" fill="#3a414a"/><path d="M730.96 360h222.2" stroke="#3a414a" fill="none"/><path d="M730.98 360.5h-.52v-1h.52z" stroke="#3a414a" stroke-width=".05" fill="#3a414a"/><path d="M967.92 360l-14.27 4.64v-9.28z" stroke="#3a414a" fill="#3a414a"/><path d="M1050 420.96v222.2" stroke="#3a414a" fill="none"/><path d="M1050.5 420.98h-1v-.52h1z" stroke="#3a414a" stroke-width=".05" fill="#3a414a"/><path d="M1050 657.92l-4.64-14.27h9.28z" stroke="#3a414a" fill="#3a414a"/><path d="M330 311.9a6 6 0 0 1 6-6h228a6 6 0 0 1 6 6v48a6 6 0 0 1-6 6H336a6 6 0 0 1-6-6z" fill="#fff" fill-opacity="0"/><path d="M330.5 311.9c0 .3-.22.5-.5.5s-.5-.2-.5-.5c0-.27.22-.5.5-.5s.5.23.5.5zm1.45-3.87c0 .27-.22.5-.5.5-.27 0-.5-.23-.5-.5 0-.28.23-.5.5-.5.28 0 .5.22.5.5zm3.6-2.05c0 .28-.2.5-.5.5-.26 0-.5-.22-.5-.5 0-.27.24-.5.5-.5.3 0 .5.23.5.5zm4.03 0c0 .28-.23.5-.5.5-.28 0-.5-.22-.5-.5 0-.27.22-.5.5-.5.27 0 .5.23.5.5zm4 0c0 .28-.2.5-.5.5-.26 0-.5-.22-.5-.5 0-.27.24-.5.5-.5.3 0 .5.23.5.5zm4.03 0c0 .28-.2.5-.5.5-.27 0-.5-.22-.5-.5s.23-.5.5-.5c.3 0 .5.22.5.5zm4.03 0c0 .28-.23.5-.5.5-.28 0-.5-.22-.5-.5s.22-.5.5-.5c.27 0 .5.22.5.5zm4 0c0 .27-.2.5-.5.5-.26 0-.5-.23-.5-.5 0-.28.24-.5.5-.5.3 0 .5.22.5.5zm4.03 0c0 .27-.22.5-.5.5s-.5-.23-.5-.5c0-.28.22-.5.5-.5s.5.22.5.5zm4.02 0c0 .27-.23.5-.5.5-.28 0-.5-.23-.5-.5 0-.28.22-.5.5-.5.27 0 .5.22.5.5zm4 0c0 .27-.2.5-.5.5-.26 0-.5-.23-.5-.5 0-.28.24-.5.5-.5.3 0 .5.22.5.5zm4.03 0c0 .27-.2.5-.5.5-.27 0-.5-.23-.5-.5 0-.28.23-.5.5-.5.3 0 .5.22.5.5zm4.03 0c0 .27-.23.5-.5.5-.28 0-.5-.23-.5-.5 0-.28.22-.5.5-.5.27 0 .5.22.5.5zm4 0c0 .27-.2.5-.5.5-.26 0-.5-.23-.5-.5 0-.3.24-.5.5-.5.3 0 .5.2.5.5zm4.03 0c0 .27-.22.5-.5.5s-.5-.23-.5-.5c0-.3.22-.5.5-.5s.5.2.5.5zm4.02 0c0 .26-.23.5-.5.5-.28 0-.5-.24-.5-.5 0-.3.22-.5.5-.5.27 0 .5.2.5.5zm4 0c0 .26-.2.5-.5.5-.26 0-.5-.24-.5-.5 0-.3.24-.5.5-.5.3 0 .5.2.5.5zm4.03 0c0 .26-.22.5-.5.5-.27 0-.5-.24-.5-.5 0-.3.23-.5.5-.5.28 0 .5.2.5.5zm4.02-.02c0 .28-.22.5-.5.5-.27 0-.5-.22-.5-.5 0-.27.23-.5.5-.5.28 0 .5.23.5.5zm4.02 0c0 .28-.22.5-.5.5-.27 0-.5-.22-.5-.5 0-.27.23-.5.5-.5.28 0 .5.23.5.5zm4.02 0c0 .28-.23.5-.5.5-.28 0-.5-.22-.5-.5 0-.27.22-.5.5-.5.27 0 .5.23.5.5zm4 0c0 .28-.2.5-.5.5-.26 0-.5-.22-.5-.5s.24-.5.5-.5c.3 0 .5.22.5.5zm4.03 0c0 .27-.23.5-.5.5-.3 0-.5-.23-.5-.5 0-.28.2-.5.5-.5.27 0 .5.22.5.5zm4 0c0 .27-.22.5-.5.5-.27 0-.5-.23-.5-.5 0-.28.23-.5.5-.5.28 0 .5.22.5.5zm4.02 0c0 .27-.22.5-.5.5-.27 0-.5-.23-.5-.5 0-.28.23-.5.5-.5.28 0 .5.22.5.5zm4.02 0c0 .27-.22.5-.5.5s-.5-.23-.5-.5c0-.28.22-.5.5-.5s.5.22.5.5zm4.02 0c0 .27-.23.5-.5.5-.28 0-.5-.23-.5-.5 0-.28.22-.5.5-.5.27 0 .5.22.5.5zm4 0c0 .27-.2.5-.5.5-.26 0-.5-.23-.5-.5 0-.28.24-.5.5-.5.3 0 .5.22.5.5zm4.03 0c0 .27-.23.5-.5.5-.3 0-.5-.23-.5-.5 0-.3.2-.5.5-.5.27 0 .5.2.5.5zm4 0c0 .27-.22.5-.5.5-.27 0-.5-.23-.5-.5 0-.3.23-.5.5-.5.28 0 .5.2.5.5zm4.02 0c0 .26-.22.5-.5.5-.27 0-.5-.24-.5-.5 0-.3.23-.5.5-.5.28 0 .5.2.5.5zm4.02 0c0 .26-.22.5-.5.5s-.5-.24-.5-.5c0-.3.22-.5.5-.5s.5.2.5.5zm4.02 0c0 .26-.23.5-.5.5-.28 0-.5-.24-.5-.5 0-.3.22-.5.5-.5.27 0 .5.2.5.5zm4-.02c0 .28-.2.5-.5.5-.26 0-.5-.22-.5-.5 0-.27.24-.5.5-.5.3 0 .5.23.5.5zm4.03 0c0 .28-.24.5-.5.5-.3 0-.5-.22-.5-.5 0-.27.2-.5.5-.5.26 0 .5.23.5.5zm4 0c0 .28-.22.5-.5.5-.27 0-.5-.22-.5-.5 0-.27.23-.5.5-.5.28 0 .5.23.5.5zm4.02 0c0 .28-.22.5-.5.5-.27 0-.5-.22-.5-.5s.23-.5.5-.5c.28 0 .5.22.5.5zm4.02 0c0 .28-.23.5-.5.5-.28 0-.5-.22-.5-.5s.22-.5.5-.5c.27 0 .5.22.5.5zm4 0c0 .27-.2.5-.5.5-.26 0-.5-.23-.5-.5 0-.28.24-.5.5-.5.3 0 .5.22.5.5zm4.03 0c0 .27-.22.5-.5.5s-.5-.23-.5-.5c0-.28.22-.5.5-.5s.5.22.5.5zm4.02 0c0 .27-.24.5-.5.5-.3 0-.5-.23-.5-.5 0-.28.2-.5.5-.5.26 0 .5.22.5.5zm4 0c0 .27-.22.5-.5.5-.27 0-.5-.23-.5-.5 0-.28.23-.5.5-.5.28 0 .5.22.5.5zm4.02 0c0 .27-.22.5-.5.5s-.5-.23-.5-.5c0-.28.22-.5.5-.5s.5.22.5.5zm4.02 0c0 .27-.23.5-.5.5-.28 0-.5-.23-.5-.5 0-.28.22-.5.5-.5.27 0 .5.22.5.5zm4 0c0 .27-.2.5-.5.5-.26 0-.5-.23-.5-.5 0-.3.24-.5.5-.5.3 0 .5.2.5.5zm4.03 0c0 .27-.22.5-.5.5s-.5-.23-.5-.5c0-.3.22-.5.5-.5s.5.2.5.5zm4.02 0c0 .26-.24.5-.5.5-.3 0-.5-.24-.5-.5 0-.3.2-.5.5-.5.26 0 .5.2.5.5zm4 0c0 .26-.22.5-.5.5-.27 0-.5-.24-.5-.5 0-.3.23-.5.5-.5.28 0 .5.2.5.5zm4.02 0c0 .26-.22.5-.5.5s-.5-.24-.5-.5c0-.3.22-.5.5-.5s.5.2.5.5zm4.02-.02c0 .28-.23.5-.5.5-.28 0-.5-.22-.5-.5 0-.27.22-.5.5-.5.27 0 .5.23.5.5zm4 0c0 .28-.2.5-.5.5-.26 0-.5-.22-.5-.5 0-.27.24-.5.5-.5.3 0 .5.23.5.5zm4.03 0c0 .28-.23.5-.5.5-.28 0-.5-.22-.5-.5s.22-.5.5-.5c.27 0 .5.22.5.5zm4 0c0 .28-.2.5-.5.5-.26 0-.5-.22-.5-.5s.24-.5.5-.5c.3 0 .5.22.5.5zm4.03 0c0 .27-.22.5-.5.5-.27 0-.5-.23-.5-.5 0-.28.23-.5.5-.5.28 0 .5.22.5.5zm4.02 0c0 .27-.23.5-.5.5-.28 0-.5-.23-.5-.5 0-.28.22-.5.5-.5.27 0 .5.22.5.5zm4 0c0 .27-.2.5-.5.5-.26 0-.5-.23-.5-.5 0-.28.24-.5.5-.5.3 0 .5.22.5.5zm4.03 0c0 .27-.22.5-.5.5s-.5-.23-.5-.5c0-.28.22-.5.5-.5s.5.22.5.5zm4.02 0c0 .27-.23.5-.5.5-.28 0-.5-.23-.5-.5 0-.28.22-.5.5-.5.27 0 .5.22.5.5zm4 0c0 .27-.2.5-.5.5-.26 0-.5-.23-.5-.5 0-.28.24-.5.5-.5.3 0 .5.22.5.5zm4.03 0c0 .27-.22.5-.5.5s-.5-.23-.5-.5c0-.3.22-.5.5-.5s.5.2.5.5zm3.88 1.44c0 .28-.22.5-.5.5-.27 0-.5-.22-.5-.5 0-.27.23-.5.5-.5.28 0 .5.23.5.5zm2.05 3.6c0 .3-.23.5-.5.5-.28 0-.5-.2-.5-.5 0-.26.22-.5.5-.5.27 0 .5.24.5.5zm0 4.1c0 .27-.22.5-.5.5-.27 0-.5-.23-.5-.5 0-.3.23-.5.5-.5.28 0 .5.2.5.5zm0 4.07c0 .27-.22.5-.5.5-.27 0-.5-.23-.5-.5 0-.28.23-.5.5-.5.28 0 .5.22.5.5zm0 4.08c0 .28-.2.5-.5.5-.26 0-.5-.22-.5-.5 0-.27.24-.5.5-.5.3 0 .5.23.5.5zm.02 4.1c0 .26-.22.5-.5.5s-.5-.24-.5-.5c0-.3.22-.5.5-.5s.5.2.5.5zm0 4.06c0 .28-.22.5-.5.5-.27 0-.5-.22-.5-.5 0-.27.23-.5.5-.5.28 0 .5.23.5.5zm0 4.08c0 .28-.2.5-.5.5-.26 0-.5-.22-.5-.5 0-.27.24-.5.5-.5.3 0 .5.23.5.5zm.02 4.08c0 .28-.22.5-.5.5s-.5-.22-.5-.5.22-.5.5-.5.5.22.5.5zm0 4.08c0 .27-.22.5-.5.5-.27 0-.5-.23-.5-.5 0-.28.23-.5.5-.5.28 0 .5.22.5.5zm0 4.08c0 .27-.2.5-.5.5-.26 0-.5-.23-.5-.5 0-.28.24-.5.5-.5.3 0 .5.22.5.5zm.02 4.07c0 .28-.24.5-.5.5-.3 0-.5-.22-.5-.5 0-.27.2-.5.5-.5.26 0 .5.23.5.5zm0 4.08c0 .28-.23.5-.5.5-.28 0-.5-.22-.5-.5 0-.27.22-.5.5-.5.27 0 .5.23.5.5zm0 4.08c0 .3-.22.5-.5.5s-.5-.2-.5-.5c0-.27.22-.5.5-.5s.5.23.5.5zm-1.45 3.9c0 .27-.23.5-.5.5-.28 0-.5-.23-.5-.5 0-.28.22-.5.5-.5.27 0 .5.22.5.5zm-3.6 2.04c0 .27-.24.5-.5.5-.3 0-.5-.23-.5-.5 0-.28.2-.5.5-.5.26 0 .5.22.5.5zm-4.03 0c0 .27-.22.5-.5.5-.27 0-.5-.23-.5-.5 0-.28.23-.5.5-.5.28 0 .5.22.5.5zm-4 0c0 .28-.24.5-.5.5-.3 0-.5-.22-.5-.5s.2-.5.5-.5c.26 0 .5.22.5.5zm-4.03 0c0 .28-.23.5-.5.5-.3 0-.5-.22-.5-.5s.2-.5.5-.5c.27 0 .5.22.5.5zm-4.03 0c0 .28-.22.5-.5.5-.27 0-.5-.22-.5-.5 0-.27.23-.5.5-.5.28 0 .5.23.5.5zm-4 0c0 .28-.24.5-.5.5-.3 0-.5-.22-.5-.5 0-.27.2-.5.5-.5.26 0 .5.23.5.5zm-4.03 0c0 .28-.22.5-.5.5s-.5-.22-.5-.5c0-.27.22-.5.5-.5s.5.23.5.5zm-4.02 0c0 .28-.22.5-.5.5-.27 0-.5-.22-.5-.5 0-.27.23-.5.5-.5.28 0 .5.23.5.5zm-4 0c0 .28-.24.5-.5.5-.3 0-.5-.22-.5-.5 0-.27.2-.5.5-.5.26 0 .5.23.5.5zm-4.03 0c0 .28-.23.5-.5.5-.3 0-.5-.22-.5-.5 0-.27.2-.5.5-.5.27 0 .5.23.5.5zm-4.03 0c0 .3-.22.5-.5.5-.27 0-.5-.2-.5-.5 0-.27.23-.5.5-.5.28 0 .5.23.5.5zm-4 0c0 .3-.24.5-.5.5-.3 0-.5-.2-.5-.5 0-.27.2-.5.5-.5.26 0 .5.23.5.5zm-4.03 0c0 .3-.22.5-.5.5s-.5-.2-.5-.5c0-.26.22-.5.5-.5s.5.24.5.5zm-4.02 0c0 .3-.22.5-.5.5-.27 0-.5-.2-.5-.5 0-.26.23-.5.5-.5.28 0 .5.24.5.5zm-4 0c0 .3-.24.5-.5.5-.3 0-.5-.2-.5-.5 0-.26.2-.5.5-.5.26 0 .5.24.5.5zm-4.03.02c0 .27-.23.5-.5.5-.28 0-.5-.23-.5-.5 0-.28.22-.5.5-.5.27 0 .5.22.5.5zm-4.02 0c0 .27-.23.5-.5.5-.28 0-.5-.23-.5-.5 0-.28.22-.5.5-.5.27 0 .5.22.5.5zm-4.02 0c0 .27-.23.5-.5.5-.28 0-.5-.23-.5-.5 0-.28.22-.5.5-.5.27 0 .5.22.5.5zm-4.02 0c0 .28-.22.5-.5.5-.27 0-.5-.22-.5-.5s.23-.5.5-.5c.28 0 .5.22.5.5zm-4 0c0 .28-.24.5-.5.5-.3 0-.5-.22-.5-.5 0-.27.2-.5.5-.5.26 0 .5.23.5.5zm-4.03 0c0 .28-.2.5-.5.5-.27 0-.5-.22-.5-.5 0-.27.23-.5.5-.5.3 0 .5.23.5.5zm-4 0c0 .28-.23.5-.5.5-.28 0-.5-.22-.5-.5 0-.27.22-.5.5-.5.27 0 .5.23.5.5zm-4.02 0c0 .28-.23.5-.5.5-.28 0-.5-.22-.5-.5 0-.27.22-.5.5-.5.27 0 .5.23.5.5zm-4.02 0c0 .28-.22.5-.5.5s-.5-.22-.5-.5c0-.27.22-.5.5-.5s.5.23.5.5zm-4.02 0c0 .28-.22.5-.5.5-.27 0-.5-.22-.5-.5 0-.27.23-.5.5-.5.28 0 .5.23.5.5zm-4 0c0 .3-.24.5-.5.5-.3 0-.5-.2-.5-.5 0-.27.2-.5.5-.5.26 0 .5.23.5.5zm-4.03 0c0 .3-.2.5-.5.5-.27 0-.5-.2-.5-.5 0-.27.23-.5.5-.5.3 0 .5.23.5.5zm-4 0c0 .3-.23.5-.5.5-.28 0-.5-.2-.5-.5 0-.26.22-.5.5-.5.27 0 .5.24.5.5zm-4.02 0c0 .3-.23.5-.5.5-.28 0-.5-.2-.5-.5 0-.26.22-.5.5-.5.27 0 .5.24.5.5zm-4.02 0c0 .3-.22.5-.5.5s-.5-.2-.5-.5c0-.26.22-.5.5-.5s.5.24.5.5zm-4.02.02c0 .27-.22.5-.5.5-.27 0-.5-.23-.5-.5 0-.28.23-.5.5-.5.28 0 .5.22.5.5zm-4 0c0 .27-.24.5-.5.5-.3 0-.5-.23-.5-.5 0-.28.2-.5.5-.5.26 0 .5.22.5.5zm-4.03 0c0 .27-.2.5-.5.5-.26 0-.5-.23-.5-.5 0-.28.24-.5.5-.5.3 0 .5.22.5.5zm-4 0c0 .28-.23.5-.5.5-.28 0-.5-.22-.5-.5s.22-.5.5-.5c.27 0 .5.22.5.5zm-4.02 0c0 .28-.23.5-.5.5-.28 0-.5-.22-.5-.5s.22-.5.5-.5c.27 0 .5.22.5.5zm-4.02 0c0 .28-.22.5-.5.5-.27 0-.5-.22-.5-.5 0-.27.23-.5.5-.5.28 0 .5.23.5.5zm-4 0c0 .28-.24.5-.5.5-.3 0-.5-.22-.5-.5 0-.27.2-.5.5-.5.26 0 .5.23.5.5zm-4.03 0c0 .28-.22.5-.5.5s-.5-.22-.5-.5c0-.27.22-.5.5-.5s.5.23.5.5zm-4.02 0c0 .28-.2.5-.5.5-.26 0-.5-.22-.5-.5 0-.27.24-.5.5-.5.3 0 .5.23.5.5zm-4 0c0 .28-.23.5-.5.5-.28 0-.5-.22-.5-.5 0-.27.22-.5.5-.5.27 0 .5.23.5.5zm-4.02 0c0 .28-.22.5-.5.5s-.5-.22-.5-.5c0-.27.22-.5.5-.5s.5.23.5.5zm-4.02 0c0 .3-.22.5-.5.5-.27 0-.5-.2-.5-.5 0-.27.23-.5.5-.5.28 0 .5.23.5.5zm-4 0c0 .3-.24.5-.5.5-.3 0-.5-.2-.5-.5 0-.26.2-.5.5-.5.26 0 .5.24.5.5zm-4.03 0c0 .3-.22.5-.5.5s-.5-.2-.5-.5c0-.26.22-.5.5-.5s.5.24.5.5zm-4.02 0c0 .3-.2.5-.5.5-.26 0-.5-.2-.5-.5 0-.26.24-.5.5-.5.3 0 .5.24.5.5zm-4 .02c0 .27-.23.5-.5.5-.28 0-.5-.23-.5-.5 0-.28.22-.5.5-.5.27 0 .5.22.5.5zm-4.02 0c0 .27-.22.5-.5.5s-.5-.23-.5-.5c0-.28.22-.5.5-.5s.5.22.5.5zm-4.02 0c0 .27-.22.5-.5.5-.27 0-.5-.23-.5-.5 0-.28.23-.5.5-.5.28 0 .5.22.5.5zm-4 0c0 .28-.24.5-.5.5-.3 0-.5-.22-.5-.5s.2-.5.5-.5c.26 0 .5.22.5.5zm-4.03 0c0 .28-.22.5-.5.5-.27 0-.5-.22-.5-.5s.23-.5.5-.5c.28 0 .5.22.5.5zm-4 0c0 .28-.24.5-.5.5-.3 0-.5-.22-.5-.5 0-.27.2-.5.5-.5.26 0 .5.23.5.5zm-4.03 0c0 .28-.23.5-.5.5-.28 0-.5-.22-.5-.5 0-.27.22-.5.5-.5.27 0 .5.23.5.5zm-4.02 0c0 .28-.22.5-.5.5-.27 0-.5-.22-.5-.5 0-.27.23-.5.5-.5.28 0 .5.23.5.5zm-4 0c0 .28-.24.5-.5.5-.3 0-.5-.22-.5-.5 0-.27.2-.5.5-.5.26 0 .5.23.5.5zm-4.03 0c0 .28-.22.5-.5.5s-.5-.22-.5-.5c0-.27.22-.5.5-.5s.5.23.5.5zm-4.02 0c0 .28-.22.5-.5.5-.27 0-.5-.22-.5-.5 0-.27.23-.5.5-.5.28 0 .5.23.5.5zm-4 0c0 .3-.24.5-.5.5-.3 0-.5-.2-.5-.5 0-.27.2-.5.5-.5.26 0 .5.23.5.5zm-4.03 0c0 .3-.22.5-.5.5s-.5-.2-.5-.5c0-.27.22-.5.5-.5s.5.23.5.5zm-3.88-1.44c0 .28-.23.5-.5.5-.28 0-.5-.22-.5-.5s.22-.5.5-.5c.27 0 .5.22.5.5zm-2.05-3.6c0 .27-.22.5-.5.5-.27 0-.5-.23-.5-.5 0-.3.23-.5.5-.5.28 0 .5.2.5.5zm0-4.1c0 .3-.23.5-.5.5-.28 0-.5-.2-.5-.5 0-.27.22-.5.5-.5.27 0 .5.23.5.5zm0-4.07c0 .27-.23.5-.5.5-.28 0-.5-.23-.5-.5 0-.28.22-.5.5-.5.27 0 .5.22.5.5zm0-4.1c0 .3-.24.5-.5.5-.3 0-.5-.2-.5-.5 0-.26.2-.5.5-.5.26 0 .5.24.5.5zm-.02-4.06c0 .27-.22.5-.5.5s-.5-.23-.5-.5c0-.28.22-.5.5-.5s.5.22.5.5zm0-4.08c0 .27-.23.5-.5.5-.28 0-.5-.23-.5-.5 0-.28.22-.5.5-.5.27 0 .5.22.5.5zm0-4.08c0 .28-.24.5-.5.5-.3 0-.5-.22-.5-.5s.2-.5.5-.5c.26 0 .5.22.5.5zm-.02-4.08c0 .28-.22.5-.5.5s-.5-.22-.5-.5c0-.27.22-.5.5-.5s.5.23.5.5zm0-4.08c0 .28-.23.5-.5.5-.28 0-.5-.22-.5-.5 0-.27.22-.5.5-.5.27 0 .5.23.5.5zm0-4.07c0 .27-.24.5-.5.5-.3 0-.5-.23-.5-.5 0-.28.2-.5.5-.5.26 0 .5.22.5.5zm-.02-4.08c0 .27-.2.5-.5.5-.26 0-.5-.23-.5-.5 0-.28.24-.5.5-.5.3 0 .5.22.5.5zm0-4.08c0 .27-.22.5-.5.5-.27 0-.5-.23-.5-.5 0-.3.23-.5.5-.5.28 0 .5.2.5.5zm0-4.1c0 .3-.22.5-.5.5s-.5-.2-.5-.5c0-.27.22-.5.5-.5s.5.23.5.5z" fill-opacity="0"/><path d="M439 290.9h22c2.2 0 4 1.8 4 4v22c0 2.22-1.8 4-4 4h-22c-2.2 0-4-1.78-4-4v-22c0-2.2 1.8-4 4-4z" fill="#333"/><path d="M461 305.9c0 6.1-4.92 11-11 11s-11-4.9-11-11c0-6.06 4.92-11 11-11s11 4.94 11 11z" fill="#fdc51f"/><use xlink:href="#k" transform="matrix(1,0,0,1,335.00000000000006,310.9107443490112) translate(92.1604938271605 30.27777777777778)"/><path d="M650 283.15V140.5" stroke="#3a414a" fill="none"/><path d="M650 297.92l-4.64-14.27h9.28z" stroke="#3a414a" fill="#3a414a"/><path d="M650 140.5v-.5" stroke="#3a414a" fill="none"/><path d="M319.82 146a6 6 0 0 1 6-6H624a6 6 0 0 1 6 6v108a6 6 0 0 1-6 6H325.82a6 6 0 0 1-6-6z" stroke="#000" stroke-opacity="0" fill="#fff" fill-opacity="0"/><path d="M463.9 125h22c2.22 0 4 1.8 4 4v22c0 2.2-1.78 4-4 4h-22c-2.2 0-4-1.8-4-4v-22c0-2.2 1.8-4 4-4z" fill="#333"/><path d="M485.9 140c0 6.08-4.9 11-11 11-6.06 0-11-4.92-11-11s4.94-11 11-11c6.1 0 11 4.92 11 11z" fill="#fdc51f"/><use xlink:href="#l" transform="matrix(1,0,0,1,324.82148869802245,145.00000000000003) translate(91.37037037037035 31.52777777777778)"/><use xlink:href="#m" transform="matrix(1,0,0,1,324.82148869802245,145.00000000000003) translate(187.6049382716049 31.52777777777778)"/><use xlink:href="#n" transform="matrix(1,0,0,1,324.82148869802245,145.00000000000003) translate(16.24691358024694 58.19444444444445)"/><use xlink:href="#o" transform="matrix(1,0,0,1,324.82148869802245,145.00000000000003) translate(95.13580246913583 58.19444444444445)"/><use xlink:href="#p" transform="matrix(1,0,0,1,324.82148869802245,145.00000000000003) translate(199.95061728395063 58.19444444444445)"/><use xlink:href="#q" transform="matrix(1,0,0,1,324.82148869802245,145.00000000000003) translate(67.358024691358 84.86111111111111)"/><use xlink:href="#r" transform="matrix(1,0,0,1,324.82148869802245,145.00000000000003) translate(180.32098765432096 84.86111111111111)"/><use xlink:href="#s" transform="matrix(1,0,0,1,324.82148869802245,145.00000000000003) translate(273.96296296296293 84.86111111111111)"/><path d="M324.06 601.77a6 6 0 0 1 0-8.5l187.22-187.2a6 6 0 0 1 8.5 0l33.3 33.3a6 6 0 0 1 0 8.48L365.84 635.07a6 6 0 0 1-8.5 0z" stroke="#000" stroke-opacity="0" fill="#fff" fill-opacity="0"/><path d="M399.3 496.85l15.55-15.56c1.56-1.57 4.1-1.57 5.65 0l15.56 15.55c1.56 1.56 1.56 4.1 0 5.65l-15.56 15.56c-1.56 1.56-4.1 1.56-5.65 0L399.3 502.5c-1.57-1.56-1.57-4.1 0-5.65z" fill="#333"/><path d="M425.45 491.9c4.3 4.3 4.3 11.26 0 15.55-4.3 4.3-11.26 4.3-15.55 0-4.3-4.3-4.3-11.26 0-15.55 4.3-4.3 11.26-4.3 15.55 0z" fill="#fdc51f"/><use xlink:href="#t" transform="matrix(0.7071067811865476,-0.7071067811865475,0.7071067811865475,0.7071067811865476,326.8925565098879,597.5271161827939) translate(89.73456790123457 30.27777777777778)"/><use xlink:href="#u" transform="matrix(0.7071067811865476,-0.7071067811865475,0.7071067811865475,0.7071067811865476,326.8925565098879,597.5271161827939) translate(129.24074074074076 30.27777777777778)"/><path d="M650 487.67a6 6 0 0 1 6-6h128a6 6 0 0 1 6 6v104.66a6 6 0 0 1-6 6H656a6 6 0 0 1-6-6z" stroke="#000" stroke-opacity="0" fill="#fff" fill-opacity="0"/><use xlink:href="#v" transform="matrix(1,0,0,1,655,486.6666666666667) translate(7.685185185185183 17.77777777777778)"/><use xlink:href="#w" transform="matrix(1,0,0,1,655,486.6666666666667) translate(64.35185185185185 17.77777777777778)"/><use xlink:href="#x" transform="matrix(1,0,0,1,655,486.6666666666667) translate(86.51234567901236 17.77777777777778)"/><use xlink:href="#y" transform="matrix(1,0,0,1,655,486.6666666666667) translate(20.586419753086425 44.44444444444444)"/><use xlink:href="#z" transform="matrix(1,0,0,1,655,486.6666666666667) translate(89.72222222222223 44.44444444444444)"/><use xlink:href="#A" transform="matrix(1,0,0,1,655,486.6666666666667) translate(9.50617283950617 71.11111111111111)"/><use xlink:href="#B" transform="matrix(1,0,0,1,655,486.6666666666667) translate(104.50617283950618 71.11111111111111)"/><use xlink:href="#C" transform="matrix(1,0,0,1,655,486.6666666666667) translate(22.407407407407405 97.77777777777777)"/><path d="M744.5 350.53a6 6 0 0 1 6-6h194.85a6 6 0 0 1 6 6V455.2a6 6 0 0 1-6 6H750.5a6 6 0 0 1-6-6z" stroke="#000" stroke-opacity="0" fill="#fff" fill-opacity="0"/><use xlink:href="#D" transform="matrix(1,0,0,1,749.4906806816306,349.53463231070253) translate(41.18518518518518 31.15277777777778)"/><use xlink:href="#E" transform="matrix(1,0,0,1,749.4906806816306,349.53463231070253) translate(97.85185185185185 31.15277777777778)"/><use xlink:href="#F" transform="matrix(1,0,0,1,749.4906806816306,349.53463231070253) translate(120.01234567901236 31.15277777777778)"/><use xlink:href="#G" transform="matrix(1,0,0,1,749.4906806816306,349.53463231070253) translate(6.5864197530864175 57.81944444444445)"/><use xlink:href="#H" transform="matrix(1,0,0,1,749.4906806816306,349.53463231070253) translate(75.72222222222221 57.81944444444445)"/><use xlink:href="#I" transform="matrix(1,0,0,1,749.4906806816306,349.53463231070253) translate(101.58641975308642 57.81944444444445)"/><use xlink:href="#E" transform="matrix(1,0,0,1,749.4906806816306,349.53463231070253) translate(44.82716049382716 84.48611111111111)"/><use xlink:href="#J" transform="matrix(1,0,0,1,749.4906806816306,349.53463231070253) translate(66.98765432098764 84.48611111111111)"/><path d="M1450 796.85v222.65" stroke="#3a414a" fill="none"/><path d="M1450 782.08l4.64 14.27h-9.28z" stroke="#3a414a" fill="#3a414a"/><path d="M1450 1019.5v.5" stroke="#3a414a" fill="none"/><path d="M1200 872.63a6 6 0 0 1 6-6h228a6 6 0 0 1 6 6v78a6 6 0 0 1-6 6h-228a6 6 0 0 1-6-6z" stroke="#000" stroke-opacity="0" fill="#fff" fill-opacity="0"/><use xlink:href="#l" transform="matrix(1,0,0,1,1205,871.6336580776756) translate(20.370370370370352 30.27777777777778)"/><use xlink:href="#m" transform="matrix(1,0,0,1,1205,871.6336580776756) translate(116.60493827160492 30.27777777777778)"/><use xlink:href="#K" transform="matrix(1,0,0,1,1205,871.6336580776756) translate(73.33333333333331 56.94444444444445)"/><use xlink:href="#L" transform="matrix(1,0,0,1,1205,871.6336580776756) translate(133.76543209876542 56.94444444444445)"/><path d="M1130 669.5a6 6 0 0 1 6-6h228a6 6 0 0 1 6 6v48a6 6 0 0 1-6 6h-228a6 6 0 0 1-6-6z" stroke="#000" stroke-opacity="0" fill="#fff" fill-opacity="0"/><use xlink:href="#M" transform="matrix(1,0,0,1,1135,668.4906806816307) translate(17.592592592592595 30.27777777777778)"/><use xlink:href="#L" transform="matrix(1,0,0,1,1135,668.4906806816307) translate(116.17283950617283 30.27777777777778)"/><path d="M1050 487.67a6 6 0 0 1 6-6h148a6 6 0 0 1 6 6V539a6 6 0 0 1-6 6h-148a6 6 0 0 1-6-6z" stroke="#000" stroke-opacity="0" fill="#fff" fill-opacity="0"/><use xlink:href="#N" transform="matrix(1,0,0,1,1055,486.6666666666667) translate(0 17.77777777777778)"/><use xlink:href="#O" transform="matrix(1,0,0,1,1055,486.6666666666667) translate(93.70370370370371 17.77777777777778)"/><use xlink:href="#P" transform="matrix(1,0,0,1,1055,486.6666666666667) translate(0 44.44444444444444)"/><path d="M969.04 720h-222.2" stroke="#3a414a" fill="none"/><path d="M969.54 720.5h-.52v-1h.52z" stroke="#3a414a" stroke-width=".05" fill="#3a414a"/><path d="M732.08 720l14.27-4.64v9.28z" stroke="#3a414a" fill="#3a414a"/><path d="M730 669.5a6 6 0 0 1 6-6h228a6 6 0 0 1 6 6v48a6 6 0 0 1-6 6H736a6 6 0 0 1-6-6z" stroke="#000" stroke-opacity="0" fill="#fff" fill-opacity="0"/><use xlink:href="#Q" transform="matrix(1,0,0,1,735,668.4906806816307) translate(80.4320987654321 30.27777777777778)"/><path d="M820.54 792.9a6 6 0 0 1 8.5 0L947.1 910.96a6 6 0 0 1 0 8.5l-36.3 36.3a6 6 0 0 1-8.47 0l-118.1-118.1a6 6 0 0 1 0-8.48z" stroke="#000" stroke-opacity="0" fill="#fff" fill-opacity="0"/><use xlink:href="#R" transform="matrix(0.7071067811865476,0.7071067811865475,-0.7071067811865475,0.7071067811865476,824.7834294751482,795.7190958417934) translate(29.037037037037038 31.27777777777778)"/><use xlink:href="#S" transform="matrix(0.7071067811865476,0.7071067811865475,-0.7071067811865475,0.7071067811865476,824.7834294751482,795.7190958417934) translate(87.06172839506172 31.27777777777778)"/><path d="M120 959.35a6 6 0 0 1 6-6h88a6 6 0 0 1 6 6v48a6 6 0 0 1-6 6h-88a6 6 0 0 1-6-6z" stroke="#000" stroke-opacity="0" fill="#fff" fill-opacity="0"/><use xlink:href="#T" transform="matrix(1,0,0,1,125,958.3498376278287) translate(5.617283950617285 30.27777777777778)"/><path d="M130 1009.35a6 6 0 0 1 6-6h228a6 6 0 0 1 6 6v48a6 6 0 0 1-6 6H136a6 6 0 0 1-6-6z" stroke="#000" stroke-opacity="0" fill="#fff" fill-opacity="0"/><use xlink:href="#U" transform="matrix(1,0,0,1,135,1008.3498376278287) translate(0 30.27777777777778)"/><use xlink:href="#V" transform="matrix(1,0,0,1,135,1008.3498376278287) translate(48.02469135802469 30.27777777777778)"/><use xlink:href="#W" transform="matrix(1,0,0,1,135,1008.3498376278287) translate(70.18518518518519 30.27777777777778)"/><use xlink:href="#X" transform="matrix(1,0,0,1,135,1008.3498376278287) translate(163.95061728395063 30.27777777777778)"/><path d="M130 1069.35a6 6 0 0 1 6-6h228a6 6 0 0 1 6 6v48a6 6 0 0 1-6 6H136a6 6 0 0 1-6-6z" stroke="#000" stroke-opacity="0" fill="#fff" fill-opacity="0"/><use xlink:href="#Y" transform="matrix(1,0,0,1,135,1068.3498376278287) translate(0 30.27777777777778)"/><use xlink:href="#Z" transform="matrix(1,0,0,1,135,1068.3498376278287) translate(48.02469135802469 30.27777777777778)"/><use xlink:href="#aa" transform="matrix(1,0,0,1,135,1068.3498376278287) translate(70.18518518518519 30.27777777777778)"/><use xlink:href="#ab" transform="matrix(1,0,0,1,135,1068.3498376278287) translate(124.32098765432099 30.27777777777778)"/><path d="M130 1149.32a6 6 0 0 1 6-6h308a6 6 0 0 1 6 6v51.33a6 6 0 0 1-6 6H136a6 6 0 0 1-6-6z" stroke="#000" stroke-opacity="0" fill="#fff" fill-opacity="0"/><path d="M279 1128.32h22c2.2 0 4 1.8 4 4v22c0 2.2-1.8 4-4 4h-22c-2.2 0-4-1.8-4-4v-22c0-2.2 1.8-4 4-4z" fill="#333"/><path d="M301 1143.32c0 6.07-4.92 11-11 11s-11-4.93-11-11c0-6.08 4.92-11 11-11s11 4.92 11 11z" fill="#fdc51f"/><use xlink:href="#ac" transform="matrix(1,0,0,1,135,1148.3168290388376) translate(0 31.27777777777778)"/><use xlink:href="#ad" transform="matrix(1,0,0,1,135,1148.3168290388376) translate(48.02469135802469 31.27777777777778)"/><use xlink:href="#ae" transform="matrix(1,0,0,1,135,1148.3168290388376) translate(70.18518518518519 31.27777777777778)"/><use xlink:href="#af" transform="matrix(1,0,0,1,135,1148.3168290388376) translate(125.74074074074073 31.27777777777778)"/><path d="M170 306a6 6 0 0 1 6-6h148a6 6 0 0 1 6 6v108a6 6 0 0 1-6 6H176a6 6 0 0 1-6-6z" stroke="#3a414a" fill="#fff"/><use xlink:href="#ag" transform="matrix(1,0,0,1,182,312.00000000000006) translate(5.098765432098759 53.77777777777778)"/><use xlink:href="#b" transform="matrix(1,0,0,1,182,312.00000000000006) translate(56.95061728395061 53.77777777777778)"/><path d="M553.15 360h-206.3" stroke="#3a414a" fill="none"/><path d="M567.92 360l-14.27 4.64v-9.28zM332.08 360l14.27-4.64v9.28z" stroke="#3a414a" fill="#3a414a"/><path d="M330 363.87a6 6 0 0 1 6-6h228a6 6 0 0 1 6 6v48a6 6 0 0 1-6 6H336a6 6 0 0 1-6-6z" stroke="#000" stroke-opacity="0" fill="#fff" fill-opacity="0"/><g><use xlink:href="#ah" transform="matrix(1,0,0,1,335.00000000000006,362.86796564403585) translate(58.98148148148148 30.27777777777778)"/><use xlink:href="#ai" transform="matrix(1,0,0,1,335.00000000000006,362.86796564403585) translate(113.11728395061729 30.27777777777778)"/></g><path d="M650 780.96v222.66" stroke="#3a414a" fill="none"/><path d="M650.5 780.98h-1v-.52h1z" stroke="#3a414a" stroke-width=".05" fill="#3a414a"/><path d="M650 1018.38l-4.64-14.26h9.28z" stroke="#3a414a" fill="#3a414a"/><path d="M410 872.63a6 6 0 0 1 6-6h228a6 6 0 0 1 6 6v51.34a6 6 0 0 1-6 6H416a6 6 0 0 1-6-6z" stroke="#000" stroke-opacity="0" fill="#fff" fill-opacity="0"/><g><use xlink:href="#aj" transform="matrix(1,0,0,1,415,871.6336580776756) translate(51.11111111111114 17.77777777777778)"/><use xlink:href="#ak" transform="matrix(1,0,0,1,415,871.6336580776756) translate(126.41975308641977 17.77777777777778)"/><use xlink:href="#al" transform="matrix(1,0,0,1,415,871.6336580776756) translate(151.11111111111114 17.77777777777778)"/><use xlink:href="#am" transform="matrix(1,0,0,1,415,871.6336580776756) translate(64.75308641975309 44.44444444444444)"/><use xlink:href="#an" transform="matrix(1,0,0,1,415,871.6336580776756) translate(152.22222222222223 44.44444444444444)"/></g><path d="M1369.04 720h-222.19" stroke="#3a414a" fill="none"/><path d="M1369.54 720.5h-.52v-1h.52z" stroke="#3a414a" stroke-width=".05" fill="#3a414a"/><path d="M1132.08 720l14.27-4.64v9.28z" stroke="#3a414a" fill="#3a414a"/><path d="M153.15 360h-17.6a6 6 0 0 0-6 6v428a6 6 0 0 0 6 6h407a6 6 0 0 0 6-6v-69.38a4.62 4.62 0 0 1 4.6-4.62" stroke="#3a414a" fill="none"/><path d="M167.92 360l-14.27 4.64v-9.28zM567.92 720l-14.27 4.64v-9.28z" stroke="#3a414a" fill="#3a414a"/><path d="M220 806a6 6 0 0 1 6-6h228a6 6 0 0 1 6 6v48a6 6 0 0 1-6 6H226a6 6 0 0 1-6-6z" stroke="#000" stroke-opacity="0" fill="#fff" fill-opacity="0"/><g><use xlink:href="#ah" transform="matrix(1,0,0,1,225,805) translate(58.98148148148148 30.27777777777778)"/><use xlink:href="#ai" transform="matrix(1,0,0,1,225,805) translate(113.11728395061729 30.27777777777778)"/></g><path d="M730.74 775.5l232.53 232.52" stroke="#3a414a" fill="none"/><path d="M731.1 775.15l-.7.7-.15-.14.17-.68.04-.5z" stroke="#3a414a" stroke-width=".05" fill="#3a414a"/><path d="M973.7 1018.47l-13.35-6.8 6.55-6.57z" stroke="#3a414a" fill="#3a414a"/><path d="M1370 306a6 6 0 0 1 6-6h148a6 6 0 0 1 6 6v108a6 6 0 0 1-6 6h-148a6 6 0 0 1-6-6z" stroke="#3a414a" fill="#fff"/><g><use xlink:href="#ao" transform="matrix(1,0,0,1,1382,312.00000000000006) translate(13.092592592592588 26.77777777777778)"/><use xlink:href="#ap" transform="matrix(1,0,0,1,1382,312.00000000000006) translate(29.172839506172842 53.44444444444445)"/><use xlink:href="#b" transform="matrix(1,0,0,1,1382,312.00000000000006) translate(31.02469135802469 80.11111111111111)"/></g><path d="M1130.96 360h222.2" stroke="#3a414a" fill="none"/><path d="M1130.98 360.5h-.52v-1h.52z" stroke="#3a414a" stroke-width=".05" fill="#3a414a"/><path d="M1367.92 360l-14.27 4.64v-9.28z" stroke="#3a414a" fill="#3a414a"/><path d="M1132.1 664.9l229.92-233.24" stroke="#3a414a" fill="none"/><path d="M1132.15 664.9l-.4.35-.6.7-.5.82-.22.54-.42.44-.7-.7 2.46-2.5z" stroke="#3a414a" stroke-width=".05" fill="#3a414a"/><path d="M1372.4 421.14l-6.73 13.42-6.6-6.5z" stroke="#3a414a" fill="#3a414a"/><path d="M1170 363.87a6 6 0 0 1 6-6h148a6 6 0 0 1 6 6v48a6 6 0 0 1-6 6h-148a6 6 0 0 1-6-6z" stroke="#000" stroke-opacity="0" fill="#fff" fill-opacity="0"/><g><use xlink:href="#N" transform="matrix(1,0,0,1,1175,362.86796564403585) translate(12.129629629629626 20.96527777777778)"/><use xlink:href="#O" transform="matrix(1,0,0,1,1175,362.86796564403585) translate(105.83333333333334 20.96527777777778)"/><use xlink:href="#P" transform="matrix(1,0,0,1,1175,362.86796564403585) translate(37.99382716049383 47.63194444444444)"/></g><g><path d="M1174.24 625.3a6 6 0 0 1 0-8.48l161.22-161.22a6 6 0 0 1 8.5 0l33.93 33.94a6 6 0 0 1 0 8.5l-161.23 161.2a6 6 0 0 1-8.5 0z" stroke="#000" stroke-opacity="0" fill="#fff" fill-opacity="0"/></g><g><use xlink:href="#aq" transform="matrix(0.7071067811865476,-0.7071067811865475,0.7071067811865475,0.7071067811865476,1177.0710678118653,621.0642738104377) translate(29.259259259259267 30.27777777777778)"/><use xlink:href="#Z" transform="matrix(0.7071067811865476,-0.7071067811865475,0.7071067811865475,0.7071067811865476,1177.0710678118653,621.0642738104377) translate(104.5679012345679 30.27777777777778)"/><use xlink:href="#P" transform="matrix(0.7071067811865476,-0.7071067811865475,0.7071067811865475,0.7071067811865476,1177.0710678118653,621.0642738104377) translate(126.72839506172839 30.27777777777778)"/></g><path d="M1441.16 283.15V140.5" stroke="#3a414a" fill="none"/><path d="M1441.16 297.92l-4.64-14.27h9.27z" stroke="#3a414a" fill="#3a414a"/><path d="M1441.16 140.5v-.5" stroke="#3a414a" fill="none"/><path d="M1100 167.67a6 6 0 0 1 6-6h318.18a6 6 0 0 1 6 6V254a6 6 0 0 1-6 6H1106a6 6 0 0 1-6-6z" stroke="#000" stroke-opacity="0" fill="#fff" fill-opacity="0"/><path d="M1254.1 146.67h22c2.2 0 4 1.8 4 4v22c0 2.2-1.8 4-4 4h-22c-2.22 0-4-1.8-4-4v-22c0-2.2 1.78-4 4-4z" fill="#333"/><path d="M1276.1 161.67c0 6.07-4.94 11-11 11-6.1 0-11-4.93-11-11 0-6.08 4.9-11 11-11 6.06 0 11 4.92 11 11z" fill="#fdc51f"/><g><use xlink:href="#l" transform="matrix(1,0,0,1,1105,166.66666666666669) translate(111.37037037037035 34.46527777777778)"/><use xlink:href="#m" transform="matrix(1,0,0,1,1105,166.66666666666669) translate(207.6049382716049 34.46527777777778)"/><use xlink:href="#ar" transform="matrix(1,0,0,1,1105,166.66666666666669) translate(12.666666666666686 61.13194444444445)"/><use xlink:href="#as" transform="matrix(1,0,0,1,1105,166.66666666666669) translate(101.49382716049384 61.13194444444445)"/><use xlink:href="#at" transform="matrix(1,0,0,1,1105,166.66666666666669) translate(217.4814814814815 61.13194444444445)"/><use xlink:href="#au" transform="matrix(1,0,0,1,1105,166.66666666666669) translate(243.3456790123457 61.13194444444445)"/></g><path d="M250 283.15V96a6 6 0 0 1 6-6h1308.46a6 6 0 0 1 6 6v258a6 6 0 0 1-6 6h-17.6" stroke="#3a414a" fill="none"/><path d="M250 297.92l-4.64-14.27h9.28zM1532.08 360l14.27-4.64v9.28z" stroke="#3a414a" fill="#3a414a"/><path d="M720 46a6 6 0 0 1 6-6h228a6 6 0 0 1 6 6v48a6 6 0 0 1-6 6H726a6 6 0 0 1-6-6z" stroke="#000" stroke-opacity="0" fill="#fff" fill-opacity="0"/><path d="M829 25h22c2.2 0 4 1.8 4 4v22c0 2.2-1.8 4-4 4h-22c-2.2 0-4-1.8-4-4V29c0-2.2 1.8-4 4-4z" fill="#333"/><path d="M851 40c0 6.08-4.92 11-11 11s-11-4.92-11-11 4.92-11 11-11 11 4.92 11 11z" fill="#fdc51f"/><g><use xlink:href="#k" transform="matrix(1,0,0,1,725.0000000000001,45) translate(92.1604938271605 30.27777777777778)"/></g><g><path d="M66 687.87a6 6 0 0 1-6-6v-228a6 6 0 0 1 6-6h48a6 6 0 0 1 6 6v228a6 6 0 0 1-6 6z" stroke="#000" stroke-opacity="0" fill="#fff" fill-opacity="0"/><path d="M45 578.87v-22c0-2.2 1.8-4 4-4h22c2.2 0 4 1.8 4 4v22c0 2.2-1.8 4-4 4H49c-2.2 0-4-1.8-4-4z" fill="#333"/><path d="M60 556.87c6.08 0 11 4.92 11 11 0 6.07-4.92 11-11 11s-11-4.93-11-11c0-6.08 4.92-11 11-11z" fill="#fdc51f"/></g><g><use xlink:href="#k" transform="matrix(6.123233995736766e-17,-1,1,6.123233995736766e-17,65,682.8679656440358) translate(92.1604938271605 30.27777777777778)"/></g><defs><path fill="#3a414a" d="M127-220V0H93v-220H8v-28h204v28h-85" id="av"/><path fill="#3a414a" d="M141-36C126-15 110 5 73 4 37 3 15-17 15-53c-1-64 63-63 125-63 3-35-9-54-41-54-24 1-41 7-42 31l-33-3c5-37 33-52 76-52 45 0 72 20 72 64v82c-1 20 7 32 28 27v20c-31 9-61-2-59-35zM48-53c0 20 12 33 32 33 41-3 63-29 60-74-43 2-92-5-92 41" id="aw"/><path fill="#3a414a" d="M135-143c-3-34-86-38-87 0 15 53 115 12 119 90S17 21 10-45l28-5c4 36 97 45 98 0-10-56-113-15-118-90-4-57 82-63 122-42 12 7 21 19 24 35" id="ax"/><path fill="#3a414a" d="M143 0L79-87 56-68V0H24v-261h32v163l83-92h37l-77 82L181 0h-38" id="ay"/><g id="a"><use transform="matrix(0.06172839506172839,0,0,0.06172839506172839,0,0)" xlink:href="#av"/><use transform="matrix(0.06172839506172839,0,0,0.06172839506172839,11.049382716049381,0)" xlink:href="#aw"/><use transform="matrix(0.06172839506172839,0,0,0.06172839506172839,23.39506172839506,0)" xlink:href="#ax"/><use transform="matrix(0.06172839506172839,0,0,0.06172839506172839,34.50617283950617,0)" xlink:href="#ay"/></g><path fill="#3a414a" d="M185-189c-5-48-123-54-124 2 14 75 158 14 163 119 3 78-121 87-175 55-17-10-28-26-33-46l33-7c5 56 141 63 141-1 0-78-155-14-162-118-5-82 145-84 179-34 5 7 8 16 11 25" id="az"/><path fill="#3a414a" d="M100-194c63 0 86 42 84 106H49c0 40 14 67 53 68 26 1 43-12 49-29l28 8c-11 28-37 45-77 45C44 4 14-33 15-96c1-61 26-98 85-98zm52 81c6-60-76-77-97-28-3 7-6 17-6 28h103" id="aA"/><path fill="#3a414a" d="M114-163C36-179 61-72 57 0H25l-1-190h30c1 12-1 29 2 39 6-27 23-49 58-41v29" id="aB"/><path fill="#3a414a" d="M108 0H70L1-190h34L89-25l56-165h34" id="aC"/><path fill="#3a414a" d="M24-231v-30h32v30H24zM24 0v-190h32V0H24" id="aD"/><path fill="#3a414a" d="M96-169c-40 0-48 33-48 73s9 75 48 75c24 0 41-14 43-38l32 2c-6 37-31 61-74 61-59 0-76-41-82-99-10-93 101-131 147-64 4 7 5 14 7 22l-32 3c-4-21-16-35-41-35" id="aE"/><g id="b"><use transform="matrix(0.06172839506172839,0,0,0.06172839506172839,0,0)" xlink:href="#az"/><use transform="matrix(0.06172839506172839,0,0,0.06172839506172839,14.814814814814813,0)" xlink:href="#aA"/><use transform="matrix(0.06172839506172839,0,0,0.06172839506172839,27.160493827160494,0)" xlink:href="#aB"/><use transform="matrix(0.06172839506172839,0,0,0.06172839506172839,34.50617283950617,0)" xlink:href="#aC"/><use transform="matrix(0.06172839506172839,0,0,0.06172839506172839,45.61728395061728,0)" xlink:href="#aD"/><use transform="matrix(0.06172839506172839,0,0,0.06172839506172839,50.49382716049382,0)" xlink:href="#aE"/><use transform="matrix(0.06172839506172839,0,0,0.06172839506172839,61.60493827160494,0)" xlink:href="#aA"/></g><path fill="#3a414a" d="M33 0v-248h34V0H33" id="aF"/><path fill="#3a414a" d="M117-194c89-4 53 116 60 194h-32v-121c0-31-8-49-39-48C34-167 62-67 57 0H25l-1-190h30c1 10-1 24 2 32 11-22 29-35 61-36" id="aG"/><path fill="#3a414a" d="M59-47c-2 24 18 29 38 22v24C64 9 27 4 27-40v-127H5v-23h24l9-43h21v43h35v23H59v120" id="aH"/><path fill="#3a414a" d="M24 0v-261h32V0H24" id="aI"/><g id="c"><use transform="matrix(0.06172839506172839,0,0,0.06172839506172839,0,0)" xlink:href="#aF"/><use transform="matrix(0.06172839506172839,0,0,0.06172839506172839,6.172839506172839,0)" xlink:href="#aG"/><use transform="matrix(0.06172839506172839,0,0,0.06172839506172839,18.51851851851852,0)" xlink:href="#aD"/><use transform="matrix(0.06172839506172839,0,0,0.06172839506172839,23.395061728395063,0)" xlink:href="#aH"/><use transform="matrix(0.06172839506172839,0,0,0.06172839506172839,29.567901234567902,0)" xlink:href="#aD"/><use transform="matrix(0.06172839506172839,0,0,0.06172839506172839,34.44444444444444,0)" xlink:href="#aw"/><use transform="matrix(0.06172839506172839,0,0,0.06172839506172839,46.79012345679012,0)" xlink:href="#aI"/></g><path fill="#3a414a" d="M30-248c87 1 191-15 191 75 0 78-77 80-158 76V0H30v-248zm33 125c57 0 124 11 124-50 0-59-68-47-124-48v98" id="aJ"/><g id="d"><use transform="matrix(0.06172839506172839,0,0,0.06172839506172839,0,0)" xlink:href="#aJ"/><use transform="matrix(0.06172839506172839,0,0,0.06172839506172839,14.814814814814813,0)" xlink:href="#aB"/><use transform="matrix(0.06172839506172839,0,0,0.06172839506172839,22.160493827160494,0)" xlink:href="#aD"/><use transform="matrix(0.06172839506172839,0,0,0.06172839506172839,27.037037037037038,0)" xlink:href="#aE"/><use transform="matrix(0.06172839506172839,0,0,0.06172839506172839,38.14814814814815,0)" xlink:href="#aA"/></g><path fill="#3a414a" d="M232-93c-1 65-40 97-104 97C67 4 28-28 28-90v-158h33c8 89-33 224 67 224 102 0 64-133 71-224h33v155" id="aK"/><g id="e"><use transform="matrix(0.06172839506172839,0,0,0.06172839506172839,0,0)" xlink:href="#aK"/><use transform="matrix(0.06172839506172839,0,0,0.06172839506172839,15.987654320987653,0)" xlink:href="#ax"/><use transform="matrix(0.06172839506172839,0,0,0.06172839506172839,27.098765432098766,0)" xlink:href="#aA"/><use transform="matrix(0.06172839506172839,0,0,0.06172839506172839,39.44444444444444,0)" xlink:href="#aB"/></g><path fill="#3a414a" d="M160-131c35 5 61 23 61 61C221 17 115-2 30 0v-248c76 3 177-17 177 60 0 33-19 50-47 57zm-97-11c50-1 110 9 110-42 0-47-63-36-110-37v79zm0 115c55-2 124 14 124-45 0-56-70-42-124-44v89" id="aL"/><g id="f"><use transform="matrix(0.06172839506172839,0,0,0.06172839506172839,0,0)" xlink:href="#aL"/><use transform="matrix(0.06172839506172839,0,0,0.06172839506172839,14.814814814814813,0)" xlink:href="#aw"/><use transform="matrix(0.06172839506172839,0,0,0.06172839506172839,27.160493827160494,0)" xlink:href="#aI"/><use transform="matrix(0.06172839506172839,0,0,0.06172839506172839,32.03703703703704,0)" xlink:href="#aw"/><use transform="matrix(0.06172839506172839,0,0,0.06172839506172839,44.382716049382715,0)" xlink:href="#aG"/><use transform="matrix(0.06172839506172839,0,0,0.06172839506172839,56.72839506172839,0)" xlink:href="#aE"/><use transform="matrix(0.06172839506172839,0,0,0.06172839506172839,67.8395061728395,0)" xlink:href="#aA"/></g><path fill="#3a414a" d="M30 0v-248h187v28H63v79h144v27H63v87h162V0H30" id="aM"/><path fill="#3a414a" d="M177-190C167-65 218 103 67 71c-23-6-38-20-44-43l32-5c15 47 100 32 89-28v-30C133-14 115 1 83 1 29 1 15-40 15-95c0-56 16-97 71-98 29-1 48 16 59 35 1-10 0-23 2-32h30zM94-22c36 0 50-32 50-73 0-42-14-75-50-75-39 0-46 34-46 75s6 73 46 73" id="aN"/><g id="g"><use transform="matrix(0.06172839506172839,0,0,0.06172839506172839,0,0)" xlink:href="#aM"/><use transform="matrix(0.06172839506172839,0,0,0.06172839506172839,14.814814814814813,0)" xlink:href="#aw"/><use transform="matrix(0.06172839506172839,0,0,0.06172839506172839,27.160493827160494,0)" xlink:href="#aB"/><use transform="matrix(0.06172839506172839,0,0,0.06172839506172839,34.50617283950617,0)" xlink:href="#aG"/><use transform="matrix(0.06172839506172839,0,0,0.06172839506172839,46.85185185185185,0)" xlink:href="#aD"/><use transform="matrix(0.06172839506172839,0,0,0.06172839506172839,51.72839506172839,0)" xlink:href="#aG"/><use transform="matrix(0.06172839506172839,0,0,0.06172839506172839,64.07407407407408,0)" xlink:href="#aN"/><use transform="matrix(0.06172839506172839,0,0,0.06172839506172839,76.41975308641976,0)" xlink:href="#ax"/></g><path fill="#3a414a" d="M179-190L93 31C79 59 56 82 12 73V49c39 6 53-20 64-50L1-190h34L92-34l54-156h33" id="aO"/><path fill="#3a414a" d="M210-169c-67 3-38 105-44 169h-31v-121c0-29-5-50-35-48C34-165 62-65 56 0H25l-1-190h30c1 10-1 24 2 32 10-44 99-50 107 0 11-21 27-35 58-36 85-2 47 119 55 194h-31v-121c0-29-5-49-35-48" id="aP"/><g id="h"><use transform="matrix(0.06172839506172839,0,0,0.06172839506172839,0,0)" xlink:href="#aJ"/><use transform="matrix(0.06172839506172839,0,0,0.06172839506172839,14.814814814814813,0)" xlink:href="#aw"/><use transform="matrix(0.06172839506172839,0,0,0.06172839506172839,27.160493827160494,0)" xlink:href="#aO"/><use transform="matrix(0.06172839506172839,0,0,0.06172839506172839,38.27160493827161,0)" xlink:href="#aP"/><use transform="matrix(0.06172839506172839,0,0,0.06172839506172839,56.72839506172839,0)" xlink:href="#aA"/><use transform="matrix(0.06172839506172839,0,0,0.06172839506172839,69.07407407407408,0)" xlink:href="#aG"/><use transform="matrix(0.06172839506172839,0,0,0.06172839506172839,81.41975308641976,0)" xlink:href="#aH"/><use transform="matrix(0.06172839506172839,0,0,0.06172839506172839,87.5925925925926,0)" xlink:href="#ax"/></g><path fill="#3a414a" d="M212-179c-10-28-35-45-73-45-59 0-87 40-87 99 0 60 29 101 89 101 43 0 62-24 78-52l27 14C228-24 195 4 139 4 59 4 22-46 18-125c-6-104 99-153 187-111 19 9 31 26 39 46" id="aQ"/><path fill="#3a414a" d="M100-194c62-1 85 37 85 99 1 63-27 99-86 99S16-35 15-95c0-66 28-99 85-99zM99-20c44 1 53-31 53-75 0-43-8-75-51-75s-53 32-53 75 10 74 51 75" id="aR"/><g id="i"><use transform="matrix(0.06172839506172839,0,0,0.06172839506172839,0,0)" xlink:href="#aQ"/><use transform="matrix(0.06172839506172839,0,0,0.06172839506172839,15.987654320987653,0)" xlink:href="#aB"/><use transform="matrix(0.06172839506172839,0,0,0.06172839506172839,23.333333333333332,0)" xlink:href="#aR"/><use transform="matrix(0.06172839506172839,0,0,0.06172839506172839,35.67901234567901,0)" xlink:href="#aG"/></g><path fill="#3a414a" d="M190 0L58-211 59 0H30v-248h39L202-35l-2-213h31V0h-41" id="aS"/><path fill="#3a414a" d="M101-234c-31-9-42 10-38 44h38v23H63V0H32v-167H5v-23h27c-7-52 17-82 69-68v24" id="aT"/><g id="j"><use transform="matrix(0.06172839506172839,0,0,0.06172839506172839,0,0)" xlink:href="#aS"/><use transform="matrix(0.06172839506172839,0,0,0.06172839506172839,15.987654320987653,0)" xlink:href="#aR"/><use transform="matrix(0.06172839506172839,0,0,0.06172839506172839,28.333333333333332,0)" xlink:href="#aH"/><use transform="matrix(0.06172839506172839,0,0,0.06172839506172839,34.50617283950617,0)" xlink:href="#aD"/><use transform="matrix(0.06172839506172839,0,0,0.06172839506172839,39.382716049382715,0)" xlink:href="#aT"/><use transform="matrix(0.06172839506172839,0,0,0.06172839506172839,45.55555555555556,0)" xlink:href="#aD"/><use transform="matrix(0.06172839506172839,0,0,0.06172839506172839,50.4320987654321,0)" xlink:href="#aE"/><use transform="matrix(0.06172839506172839,0,0,0.06172839506172839,61.543209876543216,0)" xlink:href="#aw"/><use transform="matrix(0.06172839506172839,0,0,0.06172839506172839,73.8888888888889,0)" xlink:href="#aH"/><use transform="matrix(0.06172839506172839,0,0,0.06172839506172839,80.06172839506173,0)" xlink:href="#aD"/><use transform="matrix(0.06172839506172839,0,0,0.06172839506172839,84.93827160493828,0)" xlink:href="#aR"/><use transform="matrix(0.06172839506172839,0,0,0.06172839506172839,97.28395061728396,0)" xlink:href="#aG"/></g><path fill="#635dff" d="M205 0l-28-72H64L36 0H1l101-248h38L239 0h-34zm-38-99l-47-123c-12 45-31 82-46 123h93" id="aU"/><path fill="#635dff" d="M84 4C-5 8 30-112 23-190h32v120c0 31 7 50 39 49 72-2 45-101 50-169h31l1 190h-30c-1-10 1-25-2-33-11 22-28 36-60 37" id="aV"/><path fill="#635dff" d="M59-47c-2 24 18 29 38 22v24C64 9 27 4 27-40v-127H5v-23h24l9-43h21v43h35v23H59v120" id="aW"/><path fill="#635dff" d="M106-169C34-169 62-67 57 0H25v-261h32l-1 103c12-21 28-36 61-36 89 0 53 116 60 194h-32v-121c2-32-8-49-39-48" id="aX"/><g id="k"><use transform="matrix(0.06172839506172839,0,0,0.06172839506172839,0,0)" xlink:href="#aU"/><use transform="matrix(0.06172839506172839,0,0,0.06172839506172839,14.814814814814813,0)" xlink:href="#aV"/><use transform="matrix(0.06172839506172839,0,0,0.06172839506172839,27.160493827160494,0)" xlink:href="#aW"/><use transform="matrix(0.06172839506172839,0,0,0.06172839506172839,33.333333333333336,0)" xlink:href="#aX"/></g><path fill="#635dff" d="M160-131c35 5 61 23 61 61C221 17 115-2 30 0v-248c76 3 177-17 177 60 0 33-19 50-47 57zm-97-11c50-1 110 9 110-42 0-47-63-36-110-37v79zm0 115c55-2 124 14 124-45 0-56-70-42-124-44v89" id="aY"/><path fill="#635dff" d="M135-143c-3-34-86-38-87 0 15 53 115 12 119 90S17 21 10-45l28-5c4 36 97 45 98 0-10-56-113-15-118-90-4-57 82-63 122-42 12 7 21 19 24 35" id="aZ"/><path fill="#635dff" d="M24-231v-30h32v30H24zM24 0v-190h32V0H24" id="ba"/><path fill="#635dff" d="M117-194c89-4 53 116 60 194h-32v-121c0-31-8-49-39-48C34-167 62-67 57 0H25l-1-190h30c1 10-1 24 2 32 11-22 29-35 61-36" id="bb"/><path fill="#635dff" d="M100-194c63 0 86 42 84 106H49c0 40 14 67 53 68 26 1 43-12 49-29l28 8c-11 28-37 45-77 45C44 4 14-33 15-96c1-61 26-98 85-98zm52 81c6-60-76-77-97-28-3 7-6 17-6 28h103" id="bc"/><g id="l"><use transform="matrix(0.06172839506172839,0,0,0.06172839506172839,0,0)" xlink:href="#aY"/><use transform="matrix(0.06172839506172839,0,0,0.06172839506172839,14.814814814814813,0)" xlink:href="#aV"/><use transform="matrix(0.06172839506172839,0,0,0.06172839506172839,27.160493827160494,0)" xlink:href="#aZ"/><use transform="matrix(0.06172839506172839,0,0,0.06172839506172839,38.27160493827161,0)" xlink:href="#ba"/><use transform="matrix(0.06172839506172839,0,0,0.06172839506172839,43.14814814814815,0)" xlink:href="#bb"/><use transform="matrix(0.06172839506172839,0,0,0.06172839506172839,55.49382716049383,0)" xlink:href="#bc"/><use transform="matrix(0.06172839506172839,0,0,0.06172839506172839,67.8395061728395,0)" xlink:href="#aZ"/><use transform="matrix(0.06172839506172839,0,0,0.06172839506172839,78.95061728395062,0)" xlink:href="#aZ"/></g><path fill="#635dff" d="M212-179c-10-28-35-45-73-45-59 0-87 40-87 99 0 60 29 101 89 101 43 0 62-24 78-52l27 14C228-24 195 4 139 4 59 4 22-46 18-125c-6-104 99-153 187-111 19 9 31 26 39 46" id="bd"/><path fill="#635dff" d="M100-194c62-1 85 37 85 99 1 63-27 99-86 99S16-35 15-95c0-66 28-99 85-99zM99-20c44 1 53-31 53-75 0-43-8-75-51-75s-53 32-53 75 10 74 51 75" id="be"/><path fill="#635dff" d="M210-169c-67 3-38 105-44 169h-31v-121c0-29-5-50-35-48C34-165 62-65 56 0H25l-1-190h30c1 10-1 24 2 32 10-44 99-50 107 0 11-21 27-35 58-36 85-2 47 119 55 194h-31v-121c0-29-5-49-35-48" id="bf"/><path fill="#635dff" d="M141-36C126-15 110 5 73 4 37 3 15-17 15-53c-1-64 63-63 125-63 3-35-9-54-41-54-24 1-41 7-42 31l-33-3c5-37 33-52 76-52 45 0 72 20 72 64v82c-1 20 7 32 28 27v20c-31 9-61-2-59-35zM48-53c0 20 12 33 32 33 41-3 63-29 60-74-43 2-92-5-92 41" id="bg"/><path fill="#635dff" d="M85-194c31 0 48 13 60 33l-1-100h32l1 261h-30c-2-10 0-23-3-31C134-8 116 4 85 4 32 4 16-35 15-94c0-66 23-100 70-100zm9 24c-40 0-46 34-46 75 0 40 6 74 45 74 42 0 51-32 51-76 0-42-9-74-50-73" id="bh"/><g id="m"><use transform="matrix(0.06172839506172839,0,0,0.06172839506172839,0,0)" xlink:href="#bd"/><use transform="matrix(0.06172839506172839,0,0,0.06172839506172839,15.987654320987653,0)" xlink:href="#be"/><use transform="matrix(0.06172839506172839,0,0,0.06172839506172839,28.333333333333332,0)" xlink:href="#bf"/><use transform="matrix(0.06172839506172839,0,0,0.06172839506172839,46.79012345679012,0)" xlink:href="#bf"/><use transform="matrix(0.06172839506172839,0,0,0.06172839506172839,65.24691358024691,0)" xlink:href="#bg"/><use transform="matrix(0.06172839506172839,0,0,0.06172839506172839,77.5925925925926,0)" xlink:href="#bb"/><use transform="matrix(0.06172839506172839,0,0,0.06172839506172839,89.93827160493828,0)" xlink:href="#bh"/><use transform="matrix(0.06172839506172839,0,0,0.06172839506172839,102.28395061728396,0)" xlink:href="#aZ"/></g><path fill="#635dff" d="M114-163C36-179 61-72 57 0H25l-1-190h30c1 12-1 29 2 39 6-27 23-49 58-41v29" id="bi"/><path fill="#635dff" d="M68-38c1 34 0 65-14 84H32c9-13 17-26 17-46H33v-38h35" id="bj"/><g id="n"><use transform="matrix(0.06172839506172839,0,0,0.06172839506172839,0,0)" xlink:href="#bd"/><use transform="matrix(0.06172839506172839,0,0,0.06172839506172839,15.987654320987653,0)" xlink:href="#bi"/><use transform="matrix(0.06172839506172839,0,0,0.06172839506172839,23.333333333333332,0)" xlink:href="#bc"/><use transform="matrix(0.06172839506172839,0,0,0.06172839506172839,35.67901234567901,0)" xlink:href="#bg"/><use transform="matrix(0.06172839506172839,0,0,0.06172839506172839,48.02469135802469,0)" xlink:href="#aW"/><use transform="matrix(0.06172839506172839,0,0,0.06172839506172839,54.19753086419753,0)" xlink:href="#bc"/><use transform="matrix(0.06172839506172839,0,0,0.06172839506172839,66.54320987654322,0)" xlink:href="#bj"/></g><path fill="#635dff" d="M233-177c-1 41-23 64-60 70L243 0h-38l-65-103H63V0H30v-248c88 3 205-21 203 71zM63-129c60-2 137 13 137-47 0-61-80-42-137-45v92" id="bk"/><path fill="#635dff" d="M177-190C167-65 218 103 67 71c-23-6-38-20-44-43l32-5c15 47 100 32 89-28v-30C133-14 115 1 83 1 29 1 15-40 15-95c0-56 16-97 71-98 29-1 48 16 59 35 1-10 0-23 2-32h30zM94-22c36 0 50-32 50-73 0-42-14-75-50-75-39 0-46 34-46 75s6 73 46 73" id="bl"/><g id="o"><use transform="matrix(0.06172839506172839,0,0,0.06172839506172839,0,0)" xlink:href="#bk"/><use transform="matrix(0.06172839506172839,0,0,0.06172839506172839,15.987654320987653,0)" xlink:href="#bc"/><use transform="matrix(0.06172839506172839,0,0,0.06172839506172839,28.333333333333332,0)" xlink:href="#bg"/><use transform="matrix(0.06172839506172839,0,0,0.06172839506172839,40.67901234567901,0)" xlink:href="#aZ"/><use transform="matrix(0.06172839506172839,0,0,0.06172839506172839,51.79012345679013,0)" xlink:href="#aZ"/><use transform="matrix(0.06172839506172839,0,0,0.06172839506172839,62.90123456790124,0)" xlink:href="#ba"/><use transform="matrix(0.06172839506172839,0,0,0.06172839506172839,67.77777777777779,0)" xlink:href="#bl"/><use transform="matrix(0.06172839506172839,0,0,0.06172839506172839,80.12345679012347,0)" xlink:href="#bb"/><use transform="matrix(0.06172839506172839,0,0,0.06172839506172839,92.46913580246915,0)" xlink:href="#bj"/></g><path fill="#635dff" d="M115-194c55 1 70 41 70 98S169 2 115 4C84 4 66-9 55-30l1 105H24l-1-265h31l2 30c10-21 28-34 59-34zm-8 174c40 0 45-34 45-75s-6-73-45-74c-42 0-51 32-51 76 0 43 10 73 51 73" id="bm"/><path fill="#635dff" d="M24 0v-261h32V0H24" id="bn"/><g id="p"><use transform="matrix(0.06172839506172839,0,0,0.06172839506172839,0,0)" xlink:href="#bd"/><use transform="matrix(0.06172839506172839,0,0,0.06172839506172839,15.987654320987653,0)" xlink:href="#be"/><use transform="matrix(0.06172839506172839,0,0,0.06172839506172839,28.333333333333332,0)" xlink:href="#bf"/><use transform="matrix(0.06172839506172839,0,0,0.06172839506172839,46.79012345679012,0)" xlink:href="#bm"/><use transform="matrix(0.06172839506172839,0,0,0.06172839506172839,59.1358024691358,0)" xlink:href="#bn"/><use transform="matrix(0.06172839506172839,0,0,0.06172839506172839,64.01234567901234,0)" xlink:href="#bc"/><use transform="matrix(0.06172839506172839,0,0,0.06172839506172839,76.35802469135803,0)" xlink:href="#aW"/><use transform="matrix(0.06172839506172839,0,0,0.06172839506172839,82.53086419753086,0)" xlink:href="#bc"/><use transform="matrix(0.06172839506172839,0,0,0.06172839506172839,94.87654320987654,0)" xlink:href="#bj"/></g><path fill="#635dff" d="M137 0h-34L2-248h35l83 218 83-218h36" id="bo"/><path fill="#635dff" d="M206 0h-36l-40-164L89 0H53L-1-190h32L70-26l43-164h34l41 164 42-164h31" id="bp"/><path fill="#635dff" d="M0 4l72-265h28L28 4H0" id="bq"/><g id="q"><use transform="matrix(0.06172839506172839,0,0,0.06172839506172839,0,0)" xlink:href="#bo"/><use transform="matrix(0.06172839506172839,0,0,0.06172839506172839,14.382716049382715,0)" xlink:href="#ba"/><use transform="matrix(0.06172839506172839,0,0,0.06172839506172839,19.25925925925926,0)" xlink:href="#bc"/><use transform="matrix(0.06172839506172839,0,0,0.06172839506172839,31.604938271604937,0)" xlink:href="#bp"/><use transform="matrix(0.06172839506172839,0,0,0.06172839506172839,47.59259259259259,0)" xlink:href="#bq"/><use transform="matrix(0.06172839506172839,0,0,0.06172839506172839,53.76543209876543,0)" xlink:href="#bk"/><use transform="matrix(0.06172839506172839,0,0,0.06172839506172839,69.75308641975309,0)" xlink:href="#bc"/><use transform="matrix(0.06172839506172839,0,0,0.06172839506172839,82.09876543209877,0)" xlink:href="#bg"/><use transform="matrix(0.06172839506172839,0,0,0.06172839506172839,94.44444444444446,0)" xlink:href="#bh"/></g><path fill="#635dff" d="M108 0H70L1-190h34L89-25l56-165h34" id="br"/><path fill="#635dff" d="M115-194c53 0 69 39 70 98 0 66-23 100-70 100C84 3 66-7 56-30L54 0H23l1-261h32v101c10-23 28-34 59-34zm-8 174c40 0 45-34 45-75 0-40-5-75-45-74-42 0-51 32-51 76 0 43 10 73 51 73" id="bs"/><g id="r"><use transform="matrix(0.06172839506172839,0,0,0.06172839506172839,0,0)" xlink:href="#bg"/><use transform="matrix(0.06172839506172839,0,0,0.06172839506172839,12.345679012345679,0)" xlink:href="#br"/><use transform="matrix(0.06172839506172839,0,0,0.06172839506172839,23.45679012345679,0)" xlink:href="#bg"/><use transform="matrix(0.06172839506172839,0,0,0.06172839506172839,35.80246913580247,0)" xlink:href="#ba"/><use transform="matrix(0.06172839506172839,0,0,0.06172839506172839,40.67901234567901,0)" xlink:href="#bn"/><use transform="matrix(0.06172839506172839,0,0,0.06172839506172839,45.55555555555556,0)" xlink:href="#bg"/><use transform="matrix(0.06172839506172839,0,0,0.06172839506172839,57.901234567901234,0)" xlink:href="#bs"/><use transform="matrix(0.06172839506172839,0,0,0.06172839506172839,70.24691358024691,0)" xlink:href="#bn"/><use transform="matrix(0.06172839506172839,0,0,0.06172839506172839,75.12345679012346,0)" xlink:href="#bc"/></g><g id="s"><use transform="matrix(0.06172839506172839,0,0,0.06172839506172839,0,0)" xlink:href="#bn"/><use transform="matrix(0.06172839506172839,0,0,0.06172839506172839,4.876543209876543,0)" xlink:href="#ba"/><use transform="matrix(0.06172839506172839,0,0,0.06172839506172839,9.753086419753085,0)" xlink:href="#aZ"/><use transform="matrix(0.06172839506172839,0,0,0.06172839506172839,20.864197530864196,0)" xlink:href="#aW"/></g><path fill="#635dff" d="M185-189c-5-48-123-54-124 2 14 75 158 14 163 119 3 78-121 87-175 55-17-10-28-26-33-46l33-7c5 56 141 63 141-1 0-78-155-14-162-118-5-82 145-84 179-34 5 7 8 16 11 25" id="bt"/><g id="t"><use transform="matrix(0.06172839506172839,0,0,0.06172839506172839,0,0)" xlink:href="#bt"/><use transform="matrix(0.06172839506172839,0,0,0.06172839506172839,14.814814814814813,0)" xlink:href="#bc"/><use transform="matrix(0.06172839506172839,0,0,0.06172839506172839,27.160493827160494,0)" xlink:href="#aW"/></g><path fill="#635dff" d="M96-169c-40 0-48 33-48 73s9 75 48 75c24 0 41-14 43-38l32 2c-6 37-31 61-74 61-59 0-76-41-82-99-10-93 101-131 147-64 4 7 5 14 7 22l-32 3c-4-21-16-35-41-35" id="bu"/><g id="u"><use transform="matrix(0.06172839506172839,0,0,0.06172839506172839,0,0)" xlink:href="#bm"/><use transform="matrix(0.06172839506172839,0,0,0.06172839506172839,12.345679012345679,0)" xlink:href="#bi"/><use transform="matrix(0.06172839506172839,0,0,0.06172839506172839,19.691358024691358,0)" xlink:href="#ba"/><use transform="matrix(0.06172839506172839,0,0,0.06172839506172839,24.5679012345679,0)" xlink:href="#bu"/><use transform="matrix(0.06172839506172839,0,0,0.06172839506172839,35.67901234567901,0)" xlink:href="#bc"/></g><path fill="#cc4e00" d="M30-248c87 1 191-15 191 75 0 78-77 80-158 76V0H30v-248zm33 125c57 0 124 11 124-50 0-59-68-47-124-48v98" id="bv"/><path fill="#cc4e00" d="M114-163C36-179 61-72 57 0H25l-1-190h30c1 12-1 29 2 39 6-27 23-49 58-41v29" id="bw"/><path fill="#cc4e00" d="M24-231v-30h32v30H24zM24 0v-190h32V0H24" id="bx"/><path fill="#cc4e00" d="M96-169c-40 0-48 33-48 73s9 75 48 75c24 0 41-14 43-38l32 2c-6 37-31 61-74 61-59 0-76-41-82-99-10-93 101-131 147-64 4 7 5 14 7 22l-32 3c-4-21-16-35-41-35" id="by"/><path fill="#cc4e00" d="M100-194c63 0 86 42 84 106H49c0 40 14 67 53 68 26 1 43-12 49-29l28 8c-11 28-37 45-77 45C44 4 14-33 15-96c1-61 26-98 85-98zm52 81c6-60-76-77-97-28-3 7-6 17-6 28h103" id="bz"/><g id="v"><use transform="matrix(0.06172839506172839,0,0,0.06172839506172839,0,0)" xlink:href="#bv"/><use transform="matrix(0.06172839506172839,0,0,0.06172839506172839,14.814814814814813,0)" xlink:href="#bw"/><use transform="matrix(0.06172839506172839,0,0,0.06172839506172839,22.160493827160494,0)" xlink:href="#bx"/><use transform="matrix(0.06172839506172839,0,0,0.06172839506172839,27.037037037037038,0)" xlink:href="#by"/><use transform="matrix(0.06172839506172839,0,0,0.06172839506172839,38.14814814814815,0)" xlink:href="#bz"/></g><path fill="#cc4e00" d="M135-143c-3-34-86-38-87 0 15 53 115 12 119 90S17 21 10-45l28-5c4 36 97 45 98 0-10-56-113-15-118-90-4-57 82-63 122-42 12 7 21 19 24 35" id="bA"/><g id="w"><use transform="matrix(0.06172839506172839,0,0,0.06172839506172839,0,0)" xlink:href="#bx"/><use transform="matrix(0.06172839506172839,0,0,0.06172839506172839,4.876543209876543,0)" xlink:href="#bA"/></g><path fill="#cc4e00" d="M59-47c-2 24 18 29 38 22v24C64 9 27 4 27-40v-127H5v-23h24l9-43h21v43h35v23H59v120" id="bB"/><path fill="#cc4e00" d="M68-38c1 34 0 65-14 84H32c9-13 17-26 17-46H33v-38h35" id="bC"/><g id="x"><use transform="matrix(0.06172839506172839,0,0,0.06172839506172839,0,0)" xlink:href="#bA"/><use transform="matrix(0.06172839506172839,0,0,0.06172839506172839,11.11111111111111,0)" xlink:href="#bz"/><use transform="matrix(0.06172839506172839,0,0,0.06172839506172839,23.45679012345679,0)" xlink:href="#bB"/><use transform="matrix(0.06172839506172839,0,0,0.06172839506172839,29.62962962962963,0)" xlink:href="#bC"/></g><path fill="#cc4e00" d="M185-189c-5-48-123-54-124 2 14 75 158 14 163 119 3 78-121 87-175 55-17-10-28-26-33-46l33-7c5 56 141 63 141-1 0-78-155-14-162-118-5-82 145-84 179-34 5 7 8 16 11 25" id="bD"/><path fill="#cc4e00" d="M141-36C126-15 110 5 73 4 37 3 15-17 15-53c-1-64 63-63 125-63 3-35-9-54-41-54-24 1-41 7-42 31l-33-3c5-37 33-52 76-52 45 0 72 20 72 64v82c-1 20 7 32 28 27v20c-31 9-61-2-59-35zM48-53c0 20 12 33 32 33 41-3 63-29 60-74-43 2-92-5-92 41" id="bE"/><path fill="#cc4e00" d="M84 4C-5 8 30-112 23-190h32v120c0 31 7 50 39 49 72-2 45-101 50-169h31l1 190h-30c-1-10 1-25-2-33-11 22-28 36-60 37" id="bF"/><g id="y"><use transform="matrix(0.06172839506172839,0,0,0.06172839506172839,0,0)" xlink:href="#bD"/><use transform="matrix(0.06172839506172839,0,0,0.06172839506172839,14.814814814814813,0)" xlink:href="#bB"/><use transform="matrix(0.06172839506172839,0,0,0.06172839506172839,20.98765432098765,0)" xlink:href="#bE"/><use transform="matrix(0.06172839506172839,0,0,0.06172839506172839,33.33333333333333,0)" xlink:href="#bB"/><use transform="matrix(0.06172839506172839,0,0,0.06172839506172839,39.50617283950617,0)" xlink:href="#bF"/><use transform="matrix(0.06172839506172839,0,0,0.06172839506172839,51.85185185185185,0)" xlink:href="#bA"/></g><path fill="#cc4e00" d="M100-194c62-1 85 37 85 99 1 63-27 99-86 99S16-35 15-95c0-66 28-99 85-99zM99-20c44 1 53-31 53-75 0-43-8-75-51-75s-53 32-53 75 10 74 51 75" id="bG"/><g id="z"><use transform="matrix(0.06172839506172839,0,0,0.06172839506172839,0,0)" xlink:href="#bG"/><use transform="matrix(0.06172839506172839,0,0,0.06172839506172839,12.345679012345679,0)" xlink:href="#bw"/></g><path fill="#cc4e00" d="M177-190C167-65 218 103 67 71c-23-6-38-20-44-43l32-5c15 47 100 32 89-28v-30C133-14 115 1 83 1 29 1 15-40 15-95c0-56 16-97 71-98 29-1 48 16 59 35 1-10 0-23 2-32h30zM94-22c36 0 50-32 50-73 0-42-14-75-50-75-39 0-46 34-46 75s6 73 46 73" id="bH"/><path fill="#cc4e00" d="M117-194c89-4 53 116 60 194h-32v-121c0-31-8-49-39-48C34-167 62-67 57 0H25l-1-190h30c1 10-1 24 2 32 11-22 29-35 61-36" id="bI"/><g id="A"><use transform="matrix(0.06172839506172839,0,0,0.06172839506172839,0,0)" xlink:href="#bE"/><use transform="matrix(0.06172839506172839,0,0,0.06172839506172839,12.345679012345679,0)" xlink:href="#bA"/><use transform="matrix(0.06172839506172839,0,0,0.06172839506172839,23.45679012345679,0)" xlink:href="#bA"/><use transform="matrix(0.06172839506172839,0,0,0.06172839506172839,34.5679012345679,0)" xlink:href="#bx"/><use transform="matrix(0.06172839506172839,0,0,0.06172839506172839,39.44444444444444,0)" xlink:href="#bH"/><use transform="matrix(0.06172839506172839,0,0,0.06172839506172839,51.79012345679012,0)" xlink:href="#bI"/><use transform="matrix(0.06172839506172839,0,0,0.06172839506172839,64.1358024691358,0)" xlink:href="#bz"/><use transform="matrix(0.06172839506172839,0,0,0.06172839506172839,76.48148148148148,0)" xlink:href="#bz"/></g><g id="B"><use transform="matrix(0.06172839506172839,0,0,0.06172839506172839,0,0)" xlink:href="#bx"/><use transform="matrix(0.06172839506172839,0,0,0.06172839506172839,4.876543209876543,0)" xlink:href="#bA"/></g><path fill="#cc4e00" d="M106-169C34-169 62-67 57 0H25v-261h32l-1 103c12-21 28-36 61-36 89 0 53 116 60 194h-32v-121c2-32-8-49-39-48" id="bJ"/><path fill="#cc4e00" d="M85-194c31 0 48 13 60 33l-1-100h32l1 261h-30c-2-10 0-23-3-31C134-8 116 4 85 4 32 4 16-35 15-94c0-66 23-100 70-100zm9 24c-40 0-46 34-46 75 0 40 6 74 45 74 42 0 51-32 51-76 0-42-9-74-50-73" id="bK"/><g id="C"><use transform="matrix(0.06172839506172839,0,0,0.06172839506172839,0,0)" xlink:href="#by"/><use transform="matrix(0.06172839506172839,0,0,0.06172839506172839,11.11111111111111,0)" xlink:href="#bJ"/><use transform="matrix(0.06172839506172839,0,0,0.06172839506172839,23.45679012345679,0)" xlink:href="#bE"/><use transform="matrix(0.06172839506172839,0,0,0.06172839506172839,35.80246913580247,0)" xlink:href="#bI"/><use transform="matrix(0.06172839506172839,0,0,0.06172839506172839,48.148148148148145,0)" xlink:href="#bH"/><use transform="matrix(0.06172839506172839,0,0,0.06172839506172839,60.49382716049382,0)" xlink:href="#bz"/><use transform="matrix(0.06172839506172839,0,0,0.06172839506172839,72.8395061728395,0)" xlink:href="#bK"/></g><g id="D"><use transform="matrix(0.06172839506172839,0,0,0.06172839506172839,0,0)" xlink:href="#bv"/><use transform="matrix(0.06172839506172839,0,0,0.06172839506172839,14.814814814814813,0)" xlink:href="#bw"/><use transform="matrix(0.06172839506172839,0,0,0.06172839506172839,22.160493827160494,0)" xlink:href="#bx"/><use transform="matrix(0.06172839506172839,0,0,0.06172839506172839,27.037037037037038,0)" xlink:href="#by"/><use transform="matrix(0.06172839506172839,0,0,0.06172839506172839,38.14814814814815,0)" xlink:href="#bz"/></g><g id="E"><use transform="matrix(0.06172839506172839,0,0,0.06172839506172839,0,0)" xlink:href="#bx"/><use transform="matrix(0.06172839506172839,0,0,0.06172839506172839,4.876543209876543,0)" xlink:href="#bA"/></g><g id="F"><use transform="matrix(0.06172839506172839,0,0,0.06172839506172839,0,0)" xlink:href="#bA"/><use transform="matrix(0.06172839506172839,0,0,0.06172839506172839,11.11111111111111,0)" xlink:href="#bz"/><use transform="matrix(0.06172839506172839,0,0,0.06172839506172839,23.45679012345679,0)" xlink:href="#bB"/><use transform="matrix(0.06172839506172839,0,0,0.06172839506172839,29.62962962962963,0)" xlink:href="#bC"/></g><g id="G"><use transform="matrix(0.06172839506172839,0,0,0.06172839506172839,0,0)" xlink:href="#bD"/><use transform="matrix(0.06172839506172839,0,0,0.06172839506172839,14.814814814814813,0)" xlink:href="#bB"/><use transform="matrix(0.06172839506172839,0,0,0.06172839506172839,20.98765432098765,0)" xlink:href="#bE"/><use transform="matrix(0.06172839506172839,0,0,0.06172839506172839,33.33333333333333,0)" xlink:href="#bB"/><use transform="matrix(0.06172839506172839,0,0,0.06172839506172839,39.50617283950617,0)" xlink:href="#bF"/><use transform="matrix(0.06172839506172839,0,0,0.06172839506172839,51.85185185185185,0)" xlink:href="#bA"/></g><g id="H"><use transform="matrix(0.06172839506172839,0,0,0.06172839506172839,0,0)" xlink:href="#bG"/><use transform="matrix(0.06172839506172839,0,0,0.06172839506172839,12.345679012345679,0)" xlink:href="#bw"/></g><g id="I"><use transform="matrix(0.06172839506172839,0,0,0.06172839506172839,0,0)" xlink:href="#bE"/><use transform="matrix(0.06172839506172839,0,0,0.06172839506172839,12.345679012345679,0)" xlink:href="#bA"/><use transform="matrix(0.06172839506172839,0,0,0.06172839506172839,23.45679012345679,0)" xlink:href="#bA"/><use transform="matrix(0.06172839506172839,0,0,0.06172839506172839,34.5679012345679,0)" xlink:href="#bx"/><use transform="matrix(0.06172839506172839,0,0,0.06172839506172839,39.44444444444444,0)" xlink:href="#bH"/><use transform="matrix(0.06172839506172839,0,0,0.06172839506172839,51.79012345679012,0)" xlink:href="#bI"/><use transform="matrix(0.06172839506172839,0,0,0.06172839506172839,64.1358024691358,0)" xlink:href="#bz"/><use transform="matrix(0.06172839506172839,0,0,0.06172839506172839,76.48148148148148,0)" xlink:href="#bz"/></g><g id="J"><use transform="matrix(0.06172839506172839,0,0,0.06172839506172839,0,0)" xlink:href="#by"/><use transform="matrix(0.06172839506172839,0,0,0.06172839506172839,11.11111111111111,0)" xlink:href="#bJ"/><use transform="matrix(0.06172839506172839,0,0,0.06172839506172839,23.45679012345679,0)" xlink:href="#bE"/><use transform="matrix(0.06172839506172839,0,0,0.06172839506172839,35.80246913580247,0)" xlink:href="#bI"/><use transform="matrix(0.06172839506172839,0,0,0.06172839506172839,48.148148148148145,0)" xlink:href="#bH"/><use transform="matrix(0.06172839506172839,0,0,0.06172839506172839,60.49382716049382,0)" xlink:href="#bz"/><use transform="matrix(0.06172839506172839,0,0,0.06172839506172839,72.8395061728395,0)" xlink:href="#bK"/></g><path fill="#635dff" d="M240 0l2-218c-23 76-54 145-80 218h-23L58-218 59 0H30v-248h44l77 211c21-75 51-140 76-211h43V0h-30" id="bL"/><path fill="#635dff" d="M143 0L79-87 56-68V0H24v-261h32v163l83-92h37l-77 82L181 0h-38" id="bM"/><g id="K"><use transform="matrix(0.06172839506172839,0,0,0.06172839506172839,0,0)" xlink:href="#bL"/><use transform="matrix(0.06172839506172839,0,0,0.06172839506172839,18.456790123456788,0)" xlink:href="#bg"/><use transform="matrix(0.06172839506172839,0,0,0.06172839506172839,30.80246913580247,0)" xlink:href="#bM"/><use transform="matrix(0.06172839506172839,0,0,0.06172839506172839,41.91358024691358,0)" xlink:href="#bc"/></g><path fill="#635dff" d="M179-190L93 31C79 59 56 82 12 73V49c39 6 53-20 64-50L1-190h34L92-34l54-156h33" id="bN"/><g id="L"><use transform="matrix(0.06172839506172839,0,0,0.06172839506172839,0,0)" xlink:href="#bm"/><use transform="matrix(0.06172839506172839,0,0,0.06172839506172839,12.345679012345679,0)" xlink:href="#bg"/><use transform="matrix(0.06172839506172839,0,0,0.06172839506172839,24.691358024691358,0)" xlink:href="#bN"/><use transform="matrix(0.06172839506172839,0,0,0.06172839506172839,35.80246913580247,0)" xlink:href="#bf"/><use transform="matrix(0.06172839506172839,0,0,0.06172839506172839,54.25925925925925,0)" xlink:href="#bc"/><use transform="matrix(0.06172839506172839,0,0,0.06172839506172839,66.60493827160494,0)" xlink:href="#bb"/><use transform="matrix(0.06172839506172839,0,0,0.06172839506172839,78.95061728395062,0)" xlink:href="#aW"/><use transform="matrix(0.06172839506172839,0,0,0.06172839506172839,85.12345679012346,0)" xlink:href="#aZ"/></g><g id="M"><use transform="matrix(0.06172839506172839,0,0,0.06172839506172839,0,0)" xlink:href="#bd"/><use transform="matrix(0.06172839506172839,0,0,0.06172839506172839,15.987654320987653,0)" xlink:href="#bg"/><use transform="matrix(0.06172839506172839,0,0,0.06172839506172839,28.333333333333332,0)" xlink:href="#bn"/><use transform="matrix(0.06172839506172839,0,0,0.06172839506172839,33.20987654320987,0)" xlink:href="#bu"/><use transform="matrix(0.06172839506172839,0,0,0.06172839506172839,44.32098765432099,0)" xlink:href="#aV"/><use transform="matrix(0.06172839506172839,0,0,0.06172839506172839,56.666666666666664,0)" xlink:href="#bn"/><use transform="matrix(0.06172839506172839,0,0,0.06172839506172839,61.54320987654321,0)" xlink:href="#bg"/><use transform="matrix(0.06172839506172839,0,0,0.06172839506172839,73.88888888888889,0)" xlink:href="#aW"/><use transform="matrix(0.06172839506172839,0,0,0.06172839506172839,80.06172839506172,0)" xlink:href="#bc"/></g><path fill="#cc4e00" d="M30 0v-248h187v28H63v79h144v27H63v87h162V0H30" id="bO"/><g id="N"><use transform="matrix(0.06172839506172839,0,0,0.06172839506172839,0,0)" xlink:href="#bO"/><use transform="matrix(0.06172839506172839,0,0,0.06172839506172839,14.814814814814813,0)" xlink:href="#bE"/><use transform="matrix(0.06172839506172839,0,0,0.06172839506172839,27.160493827160494,0)" xlink:href="#bw"/><use transform="matrix(0.06172839506172839,0,0,0.06172839506172839,34.50617283950617,0)" xlink:href="#bI"/><use transform="matrix(0.06172839506172839,0,0,0.06172839506172839,46.85185185185185,0)" xlink:href="#bx"/><use transform="matrix(0.06172839506172839,0,0,0.06172839506172839,51.72839506172839,0)" xlink:href="#bI"/><use transform="matrix(0.06172839506172839,0,0,0.06172839506172839,64.07407407407408,0)" xlink:href="#bH"/><use transform="matrix(0.06172839506172839,0,0,0.06172839506172839,76.41975308641976,0)" xlink:href="#bA"/></g><g id="O"><use transform="matrix(0.06172839506172839,0,0,0.06172839506172839,0,0)" xlink:href="#bE"/><use transform="matrix(0.06172839506172839,0,0,0.06172839506172839,12.345679012345679,0)" xlink:href="#bw"/><use transform="matrix(0.06172839506172839,0,0,0.06172839506172839,19.691358024691358,0)" xlink:href="#bz"/></g><g id="P"><use transform="matrix(0.06172839506172839,0,0,0.06172839506172839,0,0)" xlink:href="#by"/><use transform="matrix(0.06172839506172839,0,0,0.06172839506172839,11.11111111111111,0)" xlink:href="#bw"/><use transform="matrix(0.06172839506172839,0,0,0.06172839506172839,18.45679012345679,0)" xlink:href="#bz"/><use transform="matrix(0.06172839506172839,0,0,0.06172839506172839,30.80246913580247,0)" xlink:href="#bE"/><use transform="matrix(0.06172839506172839,0,0,0.06172839506172839,43.148148148148145,0)" xlink:href="#bB"/><use transform="matrix(0.06172839506172839,0,0,0.06172839506172839,49.32098765432099,0)" xlink:href="#bz"/><use transform="matrix(0.06172839506172839,0,0,0.06172839506172839,61.666666666666664,0)" xlink:href="#bK"/></g><path fill="#635dff" d="M30-248c87 1 191-15 191 75 0 78-77 80-158 76V0H30v-248zm33 125c57 0 124 11 124-50 0-59-68-47-124-48v98" id="bP"/><g id="Q"><use transform="matrix(0.06172839506172839,0,0,0.06172839506172839,0,0)" xlink:href="#bP"/><use transform="matrix(0.06172839506172839,0,0,0.06172839506172839,14.814814814814813,0)" xlink:href="#bg"/><use transform="matrix(0.06172839506172839,0,0,0.06172839506172839,27.160493827160494,0)" xlink:href="#bN"/><use transform="matrix(0.06172839506172839,0,0,0.06172839506172839,38.27160493827161,0)" xlink:href="#be"/><use transform="matrix(0.06172839506172839,0,0,0.06172839506172839,50.617283950617285,0)" xlink:href="#aV"/><use transform="matrix(0.06172839506172839,0,0,0.06172839506172839,62.96296296296296,0)" xlink:href="#aW"/></g><g id="R"><use transform="matrix(0.06172839506172839,0,0,0.06172839506172839,0,0)" xlink:href="#bt"/><use transform="matrix(0.06172839506172839,0,0,0.06172839506172839,14.814814814814813,0)" xlink:href="#bc"/><use transform="matrix(0.06172839506172839,0,0,0.06172839506172839,27.160493827160494,0)" xlink:href="#bb"/><use transform="matrix(0.06172839506172839,0,0,0.06172839506172839,39.50617283950617,0)" xlink:href="#bh"/></g><g id="S"><use transform="matrix(0.06172839506172839,0,0,0.06172839506172839,0,0)" xlink:href="#bc"/><use transform="matrix(0.06172839506172839,0,0,0.06172839506172839,12.345679012345679,0)" xlink:href="#bf"/><use transform="matrix(0.06172839506172839,0,0,0.06172839506172839,30.80246913580247,0)" xlink:href="#bg"/><use transform="matrix(0.06172839506172839,0,0,0.06172839506172839,43.148148148148145,0)" xlink:href="#ba"/><use transform="matrix(0.06172839506172839,0,0,0.06172839506172839,48.02469135802469,0)" xlink:href="#bn"/></g><path fill="#979ea8" d="M24 0v-248h52v208h133V0H24" id="bQ"/><path fill="#979ea8" d="M185-48c-13 30-37 53-82 52C43 2 14-33 14-96s30-98 90-98c62 0 83 45 84 108H66c0 31 8 55 39 56 18 0 30-7 34-22zm-45-69c5-46-57-63-70-21-2 6-4 13-4 21h74" id="bR"/><path fill="#979ea8" d="M195-6C206 82 75 100 31 46c-4-6-6-13-8-21l49-6c3 16 16 24 34 25 40 0 42-37 40-79-11 22-30 35-61 35-53 0-70-43-70-97 0-56 18-96 73-97 30 0 46 14 59 34l2-30h47zm-90-29c32 0 41-27 41-63 0-35-9-62-40-62-32 0-39 29-40 63 0 36 9 62 39 62" id="bS"/><path fill="#979ea8" d="M135-194c87-1 58 113 63 194h-50c-7-57 23-157-34-157-59 0-34 97-39 157H25l-1-190h47c2 12-1 28 3 38 12-26 28-41 61-42" id="bT"/><path fill="#979ea8" d="M88-194c31-1 46 15 58 34l-1-101h50l1 261h-48c-2-10 0-23-3-31C134-8 116 4 84 4 32 4 16-41 15-95c0-56 19-97 73-99zm17 164c33 0 40-30 41-66 1-37-9-64-41-64s-38 30-39 65c0 43 13 65 39 65" id="bU"/><g id="T"><use transform="matrix(0.06172839506172839,0,0,0.06172839506172839,0,0)" xlink:href="#bQ"/><use transform="matrix(0.06172839506172839,0,0,0.06172839506172839,13.518518518518517,0)" xlink:href="#bR"/><use transform="matrix(0.06172839506172839,0,0,0.06172839506172839,25.864197530864196,0)" xlink:href="#bS"/><use transform="matrix(0.06172839506172839,0,0,0.06172839506172839,39.382716049382715,0)" xlink:href="#bR"/><use transform="matrix(0.06172839506172839,0,0,0.06172839506172839,51.72839506172839,0)" xlink:href="#bT"/><use transform="matrix(0.06172839506172839,0,0,0.06172839506172839,65.24691358024691,0)" xlink:href="#bU"/></g><path fill="#635dff" d="M127-220V0H93v-220H8v-28h204v28h-85" id="bV"/><g id="U"><use transform="matrix(0.06172839506172839,0,0,0.06172839506172839,0,0)" xlink:href="#bV"/><use transform="matrix(0.06172839506172839,0,0,0.06172839506172839,13.518518518518517,0)" xlink:href="#aX"/><use transform="matrix(0.06172839506172839,0,0,0.06172839506172839,25.864197530864196,0)" xlink:href="#ba"/><use transform="matrix(0.06172839506172839,0,0,0.06172839506172839,30.74074074074074,0)" xlink:href="#aZ"/></g><g id="V"><use transform="matrix(0.06172839506172839,0,0,0.06172839506172839,0,0)" xlink:href="#ba"/><use transform="matrix(0.06172839506172839,0,0,0.06172839506172839,4.876543209876543,0)" xlink:href="#aZ"/></g><g id="W"><use transform="matrix(0.06172839506172839,0,0,0.06172839506172839,0,0)" xlink:href="#bs"/><use transform="matrix(0.06172839506172839,0,0,0.06172839506172839,12.345679012345679,0)" xlink:href="#aV"/><use transform="matrix(0.06172839506172839,0,0,0.06172839506172839,24.691358024691358,0)" xlink:href="#aZ"/><use transform="matrix(0.06172839506172839,0,0,0.06172839506172839,35.80246913580247,0)" xlink:href="#ba"/><use transform="matrix(0.06172839506172839,0,0,0.06172839506172839,40.67901234567901,0)" xlink:href="#bb"/><use transform="matrix(0.06172839506172839,0,0,0.06172839506172839,53.02469135802469,0)" xlink:href="#bc"/><use transform="matrix(0.06172839506172839,0,0,0.06172839506172839,65.37037037037037,0)" xlink:href="#aZ"/><use transform="matrix(0.06172839506172839,0,0,0.06172839506172839,76.48148148148148,0)" xlink:href="#aZ"/></g><g id="X"><use transform="matrix(0.06172839506172839,0,0,0.06172839506172839,0,0)" xlink:href="#bc"/><use transform="matrix(0.06172839506172839,0,0,0.06172839506172839,12.345679012345679,0)" xlink:href="#br"/><use transform="matrix(0.06172839506172839,0,0,0.06172839506172839,23.45679012345679,0)" xlink:href="#bc"/><use transform="matrix(0.06172839506172839,0,0,0.06172839506172839,35.80246913580247,0)" xlink:href="#bb"/><use transform="matrix(0.06172839506172839,0,0,0.06172839506172839,48.148148148148145,0)" xlink:href="#aW"/></g><path fill="#cc4e00" d="M127-220V0H93v-220H8v-28h204v28h-85" id="bW"/><g id="Y"><use transform="matrix(0.06172839506172839,0,0,0.06172839506172839,0,0)" xlink:href="#bW"/><use transform="matrix(0.06172839506172839,0,0,0.06172839506172839,13.518518518518517,0)" xlink:href="#bJ"/><use transform="matrix(0.06172839506172839,0,0,0.06172839506172839,25.864197530864196,0)" xlink:href="#bx"/><use transform="matrix(0.06172839506172839,0,0,0.06172839506172839,30.74074074074074,0)" xlink:href="#bA"/></g><g id="Z"><use transform="matrix(0.06172839506172839,0,0,0.06172839506172839,0,0)" xlink:href="#bx"/><use transform="matrix(0.06172839506172839,0,0,0.06172839506172839,4.876543209876543,0)" xlink:href="#bA"/></g><path fill="#cc4e00" d="M212-179c-10-28-35-45-73-45-59 0-87 40-87 99 0 60 29 101 89 101 43 0 62-24 78-52l27 14C228-24 195 4 139 4 59 4 22-46 18-125c-6-104 99-153 187-111 19 9 31 26 39 46" id="bX"/><path fill="#cc4e00" d="M232-93c-1 65-40 97-104 97C67 4 28-28 28-90v-158h33c8 89-33 224 67 224 102 0 64-133 71-224h33v155" id="bY"/><path fill="#cc4e00" d="M30-248c118-7 216 8 213 122C240-48 200 0 122 0H30v-248zM63-27c89 8 146-16 146-99s-60-101-146-95v194" id="bZ"/><g id="aa"><use transform="matrix(0.06172839506172839,0,0,0.06172839506172839,0,0)" xlink:href="#bX"/><use transform="matrix(0.06172839506172839,0,0,0.06172839506172839,15.987654320987653,0)" xlink:href="#bY"/><use transform="matrix(0.06172839506172839,0,0,0.06172839506172839,31.975308641975307,0)" xlink:href="#bZ"/></g><path fill="#cc4e00" d="M108 0H70L1-190h34L89-25l56-165h34" id="ca"/><g id="ab"><use transform="matrix(0.06172839506172839,0,0,0.06172839506172839,0,0)" xlink:href="#bz"/><use transform="matrix(0.06172839506172839,0,0,0.06172839506172839,12.345679012345679,0)" xlink:href="#ca"/><use transform="matrix(0.06172839506172839,0,0,0.06172839506172839,23.45679012345679,0)" xlink:href="#bz"/><use transform="matrix(0.06172839506172839,0,0,0.06172839506172839,35.80246913580247,0)" xlink:href="#bI"/><use transform="matrix(0.06172839506172839,0,0,0.06172839506172839,48.148148148148145,0)" xlink:href="#bB"/></g><path fill="#3a414a" d="M106-169C34-169 62-67 57 0H25v-261h32l-1 103c12-21 28-36 61-36 89 0 53 116 60 194h-32v-121c2-32-8-49-39-48" id="cb"/><g id="ac"><use transform="matrix(0.06172839506172839,0,0,0.06172839506172839,0,0)" xlink:href="#av"/><use transform="matrix(0.06172839506172839,0,0,0.06172839506172839,13.518518518518517,0)" xlink:href="#cb"/><use transform="matrix(0.06172839506172839,0,0,0.06172839506172839,25.864197530864196,0)" xlink:href="#aD"/><use transform="matrix(0.06172839506172839,0,0,0.06172839506172839,30.74074074074074,0)" xlink:href="#ax"/></g><g id="ad"><use transform="matrix(0.06172839506172839,0,0,0.06172839506172839,0,0)" xlink:href="#aD"/><use transform="matrix(0.06172839506172839,0,0,0.06172839506172839,4.876543209876543,0)" xlink:href="#ax"/></g><g id="ae"><use transform="matrix(0.06172839506172839,0,0,0.06172839506172839,0,0)" xlink:href="#az"/><use transform="matrix(0.06172839506172839,0,0,0.06172839506172839,14.814814814814813,0)" xlink:href="#aO"/><use transform="matrix(0.06172839506172839,0,0,0.06172839506172839,25.925925925925924,0)" xlink:href="#aG"/><use transform="matrix(0.06172839506172839,0,0,0.06172839506172839,38.2716049382716,0)" xlink:href="#aE"/></g><path fill="#3a414a" d="M84 4C-5 8 30-112 23-190h32v120c0 31 7 50 39 49 72-2 45-101 50-169h31l1 190h-30c-1-10 1-25-2-33-11 22-28 36-60 37" id="cc"/><g id="af"><use transform="matrix(0.06172839506172839,0,0,0.06172839506172839,0,0)" xlink:href="#aE"/><use transform="matrix(0.06172839506172839,0,0,0.06172839506172839,11.11111111111111,0)" xlink:href="#aR"/><use transform="matrix(0.06172839506172839,0,0,0.06172839506172839,23.45679012345679,0)" xlink:href="#aP"/><use transform="matrix(0.06172839506172839,0,0,0.06172839506172839,41.91358024691358,0)" xlink:href="#aP"/><use transform="matrix(0.06172839506172839,0,0,0.06172839506172839,60.37037037037037,0)" xlink:href="#cc"/><use transform="matrix(0.06172839506172839,0,0,0.06172839506172839,72.71604938271605,0)" xlink:href="#aG"/><use transform="matrix(0.06172839506172839,0,0,0.06172839506172839,85.06172839506173,0)" xlink:href="#aD"/><use transform="matrix(0.06172839506172839,0,0,0.06172839506172839,89.93827160493828,0)" xlink:href="#aE"/><use transform="matrix(0.06172839506172839,0,0,0.06172839506172839,101.0493827160494,0)" xlink:href="#aw"/><use transform="matrix(0.06172839506172839,0,0,0.06172839506172839,113.39506172839508,0)" xlink:href="#aH"/><use transform="matrix(0.06172839506172839,0,0,0.06172839506172839,119.56790123456791,0)" xlink:href="#aD"/><use transform="matrix(0.06172839506172839,0,0,0.06172839506172839,124.44444444444446,0)" xlink:href="#aR"/><use transform="matrix(0.06172839506172839,0,0,0.06172839506172839,136.79012345679013,0)" xlink:href="#aG"/></g><path fill="#3a414a" d="M205 0l-28-72H64L36 0H1l101-248h38L239 0h-34zm-38-99l-47-123c-12 45-31 82-46 123h93" id="cd"/><g id="ag"><use transform="matrix(0.06172839506172839,0,0,0.06172839506172839,0,0)" xlink:href="#cd"/><use transform="matrix(0.06172839506172839,0,0,0.06172839506172839,14.814814814814813,0)" xlink:href="#cc"/><use transform="matrix(0.06172839506172839,0,0,0.06172839506172839,27.160493827160494,0)" xlink:href="#aH"/><use transform="matrix(0.06172839506172839,0,0,0.06172839506172839,33.333333333333336,0)" xlink:href="#cb"/></g><g id="ah"><use transform="matrix(0.06172839506172839,0,0,0.06172839506172839,0,0)" xlink:href="#bX"/><use transform="matrix(0.06172839506172839,0,0,0.06172839506172839,15.987654320987653,0)" xlink:href="#bY"/><use transform="matrix(0.06172839506172839,0,0,0.06172839506172839,31.975308641975307,0)" xlink:href="#bZ"/></g><g id="ai"><use transform="matrix(0.06172839506172839,0,0,0.06172839506172839,0,0)" xlink:href="#bY"/><use transform="matrix(0.06172839506172839,0,0,0.06172839506172839,15.987654320987653,0)" xlink:href="#bA"/><use transform="matrix(0.06172839506172839,0,0,0.06172839506172839,27.098765432098766,0)" xlink:href="#bz"/><use transform="matrix(0.06172839506172839,0,0,0.06172839506172839,39.44444444444444,0)" xlink:href="#bw"/><use transform="matrix(0.06172839506172839,0,0,0.06172839506172839,46.79012345679012,0)" xlink:href="#bA"/></g><g id="aj"><use transform="matrix(0.06172839506172839,0,0,0.06172839506172839,0,0)" xlink:href="#bP"/><use transform="matrix(0.06172839506172839,0,0,0.06172839506172839,14.814814814814813,0)" xlink:href="#bg"/><use transform="matrix(0.06172839506172839,0,0,0.06172839506172839,27.160493827160494,0)" xlink:href="#bN"/><use transform="matrix(0.06172839506172839,0,0,0.06172839506172839,38.27160493827161,0)" xlink:href="#be"/><use transform="matrix(0.06172839506172839,0,0,0.06172839506172839,50.617283950617285,0)" xlink:href="#aV"/><use transform="matrix(0.06172839506172839,0,0,0.06172839506172839,62.96296296296296,0)" xlink:href="#aW"/></g><g id="ak"><use transform="matrix(0.06172839506172839,0,0,0.06172839506172839,0,0)" xlink:href="#aW"/><use transform="matrix(0.06172839506172839,0,0,0.06172839506172839,6.172839506172839,0)" xlink:href="#be"/></g><path fill="#635dff" d="M141 0L90-78 38 0H4l68-98-65-92h35l48 74 47-74h35l-64 92 68 98h-35" id="ce"/><g id="al"><use transform="matrix(0.06172839506172839,0,0,0.06172839506172839,0,0)" xlink:href="#bc"/><use transform="matrix(0.06172839506172839,0,0,0.06172839506172839,12.345679012345679,0)" xlink:href="#ce"/><use transform="matrix(0.06172839506172839,0,0,0.06172839506172839,23.45679012345679,0)" xlink:href="#aW"/><use transform="matrix(0.06172839506172839,0,0,0.06172839506172839,29.62962962962963,0)" xlink:href="#bc"/><use transform="matrix(0.06172839506172839,0,0,0.06172839506172839,41.97530864197531,0)" xlink:href="#bi"/><use transform="matrix(0.06172839506172839,0,0,0.06172839506172839,49.32098765432099,0)" xlink:href="#bb"/><use transform="matrix(0.06172839506172839,0,0,0.06172839506172839,61.666666666666664,0)" xlink:href="#bg"/><use transform="matrix(0.06172839506172839,0,0,0.06172839506172839,74.01234567901234,0)" xlink:href="#bn"/></g><path fill="#635dff" d="M101-234c-31-9-42 10-38 44h38v23H63V0H32v-167H5v-23h27c-7-52 17-82 69-68v24" id="cf"/><g id="am"><use transform="matrix(0.06172839506172839,0,0,0.06172839506172839,0,0)" xlink:href="#cf"/><use transform="matrix(0.06172839506172839,0,0,0.06172839506172839,6.172839506172839,0)" xlink:href="#ba"/><use transform="matrix(0.06172839506172839,0,0,0.06172839506172839,11.049382716049383,0)" xlink:href="#bb"/><use transform="matrix(0.06172839506172839,0,0,0.06172839506172839,23.395061728395063,0)" xlink:href="#bg"/><use transform="matrix(0.06172839506172839,0,0,0.06172839506172839,35.74074074074074,0)" xlink:href="#bb"/><use transform="matrix(0.06172839506172839,0,0,0.06172839506172839,48.08641975308642,0)" xlink:href="#bu"/><use transform="matrix(0.06172839506172839,0,0,0.06172839506172839,59.19753086419753,0)" xlink:href="#ba"/><use transform="matrix(0.06172839506172839,0,0,0.06172839506172839,64.07407407407408,0)" xlink:href="#bg"/><use transform="matrix(0.06172839506172839,0,0,0.06172839506172839,76.41975308641976,0)" xlink:href="#bn"/></g><g id="an"><use transform="matrix(0.06172839506172839,0,0,0.06172839506172839,0,0)" xlink:href="#bg"/><use transform="matrix(0.06172839506172839,0,0,0.06172839506172839,12.345679012345679,0)" xlink:href="#bu"/><use transform="matrix(0.06172839506172839,0,0,0.06172839506172839,23.45679012345679,0)" xlink:href="#bu"/><use transform="matrix(0.06172839506172839,0,0,0.06172839506172839,34.5679012345679,0)" xlink:href="#be"/><use transform="matrix(0.06172839506172839,0,0,0.06172839506172839,46.913580246913575,0)" xlink:href="#aV"/><use transform="matrix(0.06172839506172839,0,0,0.06172839506172839,59.25925925925925,0)" xlink:href="#bb"/><use transform="matrix(0.06172839506172839,0,0,0.06172839506172839,71.60493827160494,0)" xlink:href="#aW"/></g><g id="ao"><use transform="matrix(0.06172839506172839,0,0,0.06172839506172839,0,0)" xlink:href="#cd"/><use transform="matrix(0.06172839506172839,0,0,0.06172839506172839,14.814814814814813,0)" xlink:href="#aE"/><use transform="matrix(0.06172839506172839,0,0,0.06172839506172839,25.925925925925924,0)" xlink:href="#aE"/><use transform="matrix(0.06172839506172839,0,0,0.06172839506172839,37.03703703703704,0)" xlink:href="#aR"/><use transform="matrix(0.06172839506172839,0,0,0.06172839506172839,49.382716049382715,0)" xlink:href="#cc"/><use transform="matrix(0.06172839506172839,0,0,0.06172839506172839,61.72839506172839,0)" xlink:href="#aG"/><use transform="matrix(0.06172839506172839,0,0,0.06172839506172839,74.07407407407408,0)" xlink:href="#aH"/><use transform="matrix(0.06172839506172839,0,0,0.06172839506172839,80.24691358024691,0)" xlink:href="#aD"/><use transform="matrix(0.06172839506172839,0,0,0.06172839506172839,85.12345679012346,0)" xlink:href="#aG"/><use transform="matrix(0.06172839506172839,0,0,0.06172839506172839,97.46913580246914,0)" xlink:href="#aN"/></g><g id="ap"><use transform="matrix(0.06172839506172839,0,0,0.06172839506172839,0,0)" xlink:href="#cd"/><use transform="matrix(0.06172839506172839,0,0,0.06172839506172839,14.814814814814813,0)" xlink:href="#aG"/><use transform="matrix(0.06172839506172839,0,0,0.06172839506172839,27.160493827160494,0)" xlink:href="#aw"/><use transform="matrix(0.06172839506172839,0,0,0.06172839506172839,39.50617283950617,0)" xlink:href="#aI"/><use transform="matrix(0.06172839506172839,0,0,0.06172839506172839,44.382716049382715,0)" xlink:href="#aO"/><use transform="matrix(0.06172839506172839,0,0,0.06172839506172839,55.49382716049382,0)" xlink:href="#aH"/><use transform="matrix(0.06172839506172839,0,0,0.06172839506172839,61.666666666666664,0)" xlink:href="#aD"/><use transform="matrix(0.06172839506172839,0,0,0.06172839506172839,66.5432098765432,0)" xlink:href="#aE"/></g><path fill="#cc4e00" d="M179-190L93 31C79 59 56 82 12 73V49c39 6 53-20 64-50L1-190h34L92-34l54-156h33" id="cg"/><g id="aq"><use transform="matrix(0.06172839506172839,0,0,0.06172839506172839,0,0)" xlink:href="#bv"/><use transform="matrix(0.06172839506172839,0,0,0.06172839506172839,14.814814814814813,0)" xlink:href="#bE"/><use transform="matrix(0.06172839506172839,0,0,0.06172839506172839,27.160493827160494,0)" xlink:href="#cg"/><use transform="matrix(0.06172839506172839,0,0,0.06172839506172839,38.27160493827161,0)" xlink:href="#bG"/><use transform="matrix(0.06172839506172839,0,0,0.06172839506172839,50.617283950617285,0)" xlink:href="#bF"/><use transform="matrix(0.06172839506172839,0,0,0.06172839506172839,62.96296296296296,0)" xlink:href="#bB"/></g><path fill="#635dff" d="M145-31C134-9 116 4 85 4 32 4 16-35 15-94c0-59 17-99 70-100 32-1 48 14 60 33 0-11-1-24 2-32h30l-1 268h-32zM93-21c41 0 51-33 51-76s-8-73-50-73c-40 0-46 35-46 75s5 74 45 74" id="ch"/><g id="ar"><use transform="matrix(0.06172839506172839,0,0,0.06172839506172839,0,0)" xlink:href="#bk"/><use transform="matrix(0.06172839506172839,0,0,0.06172839506172839,15.987654320987653,0)" xlink:href="#bc"/><use transform="matrix(0.06172839506172839,0,0,0.06172839506172839,28.333333333333332,0)" xlink:href="#ch"/><use transform="matrix(0.06172839506172839,0,0,0.06172839506172839,40.67901234567901,0)" xlink:href="#aV"/><use transform="matrix(0.06172839506172839,0,0,0.06172839506172839,53.02469135802469,0)" xlink:href="#bc"/><use transform="matrix(0.06172839506172839,0,0,0.06172839506172839,65.37037037037037,0)" xlink:href="#aZ"/><use transform="matrix(0.06172839506172839,0,0,0.06172839506172839,76.48148148148148,0)" xlink:href="#aW"/></g><g id="as"><use transform="matrix(0.06172839506172839,0,0,0.06172839506172839,0,0)" xlink:href="#aU"/><use transform="matrix(0.06172839506172839,0,0,0.06172839506172839,14.814814814814813,0)" xlink:href="#bu"/><use transform="matrix(0.06172839506172839,0,0,0.06172839506172839,25.925925925925924,0)" xlink:href="#bu"/><use transform="matrix(0.06172839506172839,0,0,0.06172839506172839,37.03703703703704,0)" xlink:href="#be"/><use transform="matrix(0.06172839506172839,0,0,0.06172839506172839,49.382716049382715,0)" xlink:href="#aV"/><use transform="matrix(0.06172839506172839,0,0,0.06172839506172839,61.72839506172839,0)" xlink:href="#bb"/><use transform="matrix(0.06172839506172839,0,0,0.06172839506172839,74.07407407407408,0)" xlink:href="#aW"/><use transform="matrix(0.06172839506172839,0,0,0.06172839506172839,80.24691358024691,0)" xlink:href="#ba"/><use transform="matrix(0.06172839506172839,0,0,0.06172839506172839,85.12345679012346,0)" xlink:href="#bb"/><use transform="matrix(0.06172839506172839,0,0,0.06172839506172839,97.46913580246914,0)" xlink:href="#bl"/></g><g id="at"><use transform="matrix(0.06172839506172839,0,0,0.06172839506172839,0,0)" xlink:href="#be"/><use transform="matrix(0.06172839506172839,0,0,0.06172839506172839,12.345679012345679,0)" xlink:href="#bi"/></g><g id="au"><use transform="matrix(0.06172839506172839,0,0,0.06172839506172839,0,0)" xlink:href="#aU"/><use transform="matrix(0.06172839506172839,0,0,0.06172839506172839,14.814814814814813,0)" xlink:href="#bb"/><use transform="matrix(0.06172839506172839,0,0,0.06172839506172839,27.160493827160494,0)" xlink:href="#bg"/><use transform="matrix(0.06172839506172839,0,0,0.06172839506172839,39.50617283950617,0)" xlink:href="#bn"/><use transform="matrix(0.06172839506172839,0,0,0.06172839506172839,44.382716049382715,0)" xlink:href="#bN"/><use transform="matrix(0.06172839506172839,0,0,0.06172839506172839,55.49382716049382,0)" xlink:href="#aW"/><use transform="matrix(0.06172839506172839,0,0,0.06172839506172839,61.666666666666664,0)" xlink:href="#ba"/><use transform="matrix(0.06172839506172839,0,0,0.06172839506172839,66.5432098765432,0)" xlink:href="#bu"/></g></defs></g></svg>